<?xml version="1.0" encoding="UTF-8" standalone="no"?>
<svg
   xmlns:dc="http://purl.org/dc/elements/1.1/"
   xmlns:cc="http://creativecommons.org/ns#"
   xmlns:rdf="http://www.w3.org/1999/02/22-rdf-syntax-ns#"
   xmlns:svg="http://www.w3.org/2000/svg"
   xmlns="http://www.w3.org/2000/svg"
   id="svg8"
   version="1.1"
   viewBox="0 0 101.19518 13.88105"
   height="13.88105mm"
   width="101.19518mm">
  <defs
     id="defs2" />
  <metadata
     id="metadata5">
    <rdf:RDF>
      <cc:Work
         rdf:about="">
        <dc:format>image/svg+xml</dc:format>
        <dc:type
           rdf:resource="http://purl.org/dc/dcmitype/StillImage" />
        <dc:title></dc:title>
      </cc:Work>
    </rdf:RDF>
  </metadata>
  <g
     transform="translate(-53.136761,-100.41001)"
     id="layer1">
    <g
       id="text817"
       style="font-style:normal;font-variant:normal;font-weight:normal;font-stretch:normal;font-size:19.75555611px;line-height:1.25;font-family:'Eras Demi ITC';-inkscape-font-specification:'Eras Demi ITC';letter-spacing:0px;word-spacing:0px;fill:#00496e;fill-opacity:1;stroke:none;stroke-width:0.26458332"
       aria-label="SafeTrade">
      <path
         id="path5704"
         style="font-size:19.75555611px;fill:#00496e;fill-opacity:1;stroke-width:0.26458332"
         d="m 53.339333,113.77978 q -0.07717,-1.46624 -0.202572,-2.39228 1.890669,0.85852 3.434071,0.85852 0.617361,0 1.147906,-0.18328 0.540191,-0.19293 0.790994,-0.53055 0.260449,-0.34726 0.260449,-0.7717 0,-0.32797 -0.115755,-0.58842 -0.173633,-0.35691 -0.578776,-0.74276 -0.559483,-0.53055 -1.996777,-1.74598 -0.684885,-0.58842 -0.945335,-0.83922 -0.578776,-0.54984 -0.887456,-0.98392 -0.308681,-0.44373 -0.443728,-0.87781 -0.135048,-0.43408 -0.135048,-0.92604 0,-0.90675 0.501606,-1.69775 0.511252,-0.80064 1.514464,-1.24436 1.012858,-0.45338 2.546614,-0.45338 1.379417,0 3.106099,0.33762 0.04823,1.00321 0.192925,2.29581 -1.504818,-0.57877 -2.778125,-0.57877 -0.945334,0 -1.553049,0.43408 -0.598069,0.42443 -0.598069,0.99356 0,0.15434 0.03859,0.32798 0.03858,0.16398 0.115755,0.32797 0.07717,0.15434 0.270096,0.41479 0.202572,0.2508 0.578776,0.59807 0.385851,0.33762 0.655946,0.54984 l 1.340831,1.08038 q 0.453375,0.3762 0.810287,0.73311 0.356912,0.35692 0.607715,0.68489 0.260449,0.32797 0.405143,0.62701 0.144694,0.29903 0.212218,0.61736 0.07717,0.30868 0.07717,0.65594 0,0.81029 -0.376204,1.53376 -0.376205,0.71382 -1.080382,1.17684 -0.704178,0.46303 -1.543403,0.63666 -0.839226,0.18328 -1.774913,0.18328 -0.617362,0 -1.437294,-0.10611 -0.819933,-0.10611 -2.160764,-0.40514 z" />
      <path
         id="path5706"
         style="font-size:19.75555611px;fill:#00496e;fill-opacity:1;stroke-width:0.26458332"
         d="m 64.393956,106.40038 q 0.135047,-0.69453 0.163986,-0.97427 0.03858,-0.27974 0.125402,-0.84887 1.311892,-0.30868 2.315104,-0.43409 1.003212,-0.1254 1.9389,-0.1254 1.061089,0 1.948546,0.25081 0.887456,0.24115 1.389062,0.78134 0.501606,0.54019 0.501606,1.55305 0,0.54984 -0.15434,2.80707 -0.15434,2.24758 -0.183279,4.6495 -0.733116,-0.0193 -1.350478,-0.0193 -0.588422,0 -1.379416,0.0193 0.125402,-1.1672 0.202572,-2.70096 l 0.125401,-2.40192 q -0.366558,0.24116 -0.559483,0.33762 -0.192926,0.0965 -0.434082,0.18328 -0.241157,0.0772 -0.848872,0.2508 -0.607715,0.16399 -0.974273,0.28939 -0.366558,0.1254 -0.665592,0.28939 -0.289388,0.15434 -0.49196,0.35691 -0.202572,0.19293 -0.299034,0.41479 -0.08682,0.21222 -0.08682,0.46302 0,0.40514 0.231511,0.70418 0.241156,0.28939 0.598068,0.40514 0.356912,0.11576 0.839226,0.11576 0.30868,0 0.6463,-0.0482 0.347265,-0.0482 0.926041,-0.24116 -0.202571,0.54984 -0.472667,1.63986 -0.684885,0.11576 -1.090028,0.1447 -0.405143,0.0289 -0.752409,0.0289 -1.21543,0 -1.996777,-0.32798 -0.781348,-0.32797 -1.157553,-1.04179 -0.366558,-0.71383 -0.366558,-1.4373 0,-0.41479 0.144694,-0.81993 0.144694,-0.40514 0.424436,-0.74276 0.279742,-0.33762 0.72347,-0.6463 0.443728,-0.31833 1.282954,-0.60772 0.839225,-0.29903 2.218641,-0.59807 0.366559,-0.0772 0.762055,-0.18327 0.395497,-0.11576 0.627008,-0.22187 0.241157,-0.10611 0.414789,-0.27009 0.173633,-0.17364 0.250803,-0.35692 0.08682,-0.18328 0.08682,-0.3762 0,-0.3762 -0.250803,-0.63665 -0.241157,-0.26045 -0.636654,-0.35692 -0.385851,-0.1061 -0.858518,-0.1061 -1.75562,0 -3.877799,0.83922 z" />
      <path
         id="path5708"
         style="font-size:19.75555611px;fill:#00496e;fill-opacity:1;stroke-width:0.26458332"
         d="m 75.197775,114.05952 0.115755,-1.59164 0.289388,-6.27007 h -1.196137 q 0.02894,-0.28939 0.05788,-0.93569 0.03858,-0.65595 0.04823,-0.95498 h 1.311892 v -0.38585 q 0,-1.03215 0.08682,-1.57234 0.08682,-0.54984 0.318327,-0.8971 0.241157,-0.34727 0.665593,-0.59807 0.434082,-0.26045 0.945334,-0.34727 0.511252,-0.0965 1.051443,-0.0965 1.099675,0 2.324751,0.30868 0.02894,1.08038 0.106109,1.85208 -0.926042,-0.32797 -1.688097,-0.32797 -0.299035,0 -0.549838,0.0772 -0.250802,0.0675 -0.414789,0.19292 -0.15434,0.12541 -0.260449,0.32798 -0.106109,0.20257 -0.144694,0.48231 -0.03858,0.2701 -0.03858,0.62701 v 0.35691 h 2.459798 q -0.05788,0.66559 -0.115755,1.89067 h -2.315105 q -0.183279,3.83921 -0.279741,7.86171 -0.877811,-0.0193 -1.398709,-0.0193 -0.530545,0 -1.379416,0.0193 z" />
      <path
         id="path5710"
         style="font-size:19.75555611px;fill:#00496e;fill-opacity:1;stroke-width:0.26458332"
         d="m 90.390647,111.86981 q -0.125401,0.56913 -0.356912,2.04501 -1.041796,0.22187 -1.75562,0.29904 -0.713824,0.0772 -1.437294,0.0772 -1.263661,0 -2.266873,-0.25081 -0.993566,-0.2508 -1.745974,-0.91639 -0.752409,-0.67524 -1.109321,-1.64951 -0.356912,-0.97428 -0.356912,-2.04501 0,-1.18649 0.414789,-2.29581 0.41479,-1.11897 1.157553,-1.82315 0.752408,-0.71382 1.707389,-1.00321 0.95498,-0.29903 1.996777,-0.29903 0.98392,0 1.871376,0.2508 0.887457,0.24116 1.485525,0.80064 0.607715,0.55948 0.926042,1.35048 0.327973,0.78134 0.327973,1.74597 0,0.45338 -0.09646,0.93569 l -7.070715,0.01 q -0.01929,0.35691 -0.01929,0.56913 0,0.6463 0.221864,1.18649 0.221864,0.54019 0.6463,0.91639 0.424436,0.37621 1.012858,0.55949 0.588422,0.17363 1.157552,0.17363 0.665593,0 1.437294,-0.1447 0.781348,-0.14469 1.852083,-0.49196 z m -6.231488,-3.89709 4.514453,0.01 q 0,-0.46302 -0.02894,-0.68489 -0.02894,-0.22186 -0.135048,-0.5016 -0.09646,-0.28939 -0.270095,-0.50161 -0.173633,-0.22186 -0.405144,-0.36656 -0.23151,-0.14469 -0.540191,-0.22186 -0.299034,-0.0772 -0.646299,-0.0772 -0.405144,0 -0.790994,0.1254 -0.376205,0.1254 -0.694532,0.36656 -0.318326,0.24116 -0.520898,0.54019 -0.192925,0.29903 -0.289388,0.57878 -0.09646,0.27009 -0.192925,0.73311 z" />
      <path
         id="path5712"
         style="font-size:19.75555611px;fill:#00496e;fill-opacity:1;stroke-width:0.26458332"
         d="m 95.686447,114.05952 0.212218,-2.81671 0.212217,-4.19613 0.135048,-4.1286 h -0.675239 l -0.627007,0.01 -0.598069,0.01 -2.228287,0.0675 q 0.07717,-1.38906 0.08682,-2.11253 2.778125,0.0193 5.816699,0.0193 l 3.463003,-0.01 1.85209,-0.01 q -0.0965,1.36013 -0.0965,2.09324 -1.74597,-0.0868 -3.347247,-0.0868 h -0.742762 l -0.115755,1.76526 -0.279742,6.79097 -0.01929,1.13826 q -0.0096,0.70418 -0.0096,1.46624 l -1.466233,-0.0193 q -0.241156,0 -1.572341,0.0193 z" />
      <path
         id="path5714"
         style="font-size:19.75555611px;fill:#00496e;fill-opacity:1;stroke-width:0.26458332"
         d="m 104.0787,114.05952 0.27974,-4.58198 0.0772,-2.66237 q 0.0193,-0.81993 0.0193,-1.64951 0,-0.1447 -0.0193,-0.9164 0.89711,0.0193 1.32154,0.0193 0.49196,0 1.30225,-0.0193 l -0.0482,1.36013 q 0.36656,-0.5209 0.62701,-0.7717 0.26044,-0.26045 0.57877,-0.44373 0.32797,-0.18328 0.72347,-0.27975 0.3955,-0.0965 0.81029,-0.0965 0.38585,0 0.79099,0.0965 0,0.89711 0.0868,2.27652 -0.56913,-0.15434 -1.03215,-0.15434 -0.55949,0 -0.99357,0.17364 -0.42443,0.16398 -0.7717,0.51125 -0.33762,0.33762 -0.55948,0.83922 -0.18328,0.40515 -0.2701,1.05145 -0.0772,0.5016 -0.13505,1.71703 -0.0482,1.21543 -0.0482,2.39228 0,0.45337 0.0289,1.13826 -0.73311,-0.0193 -1.34083,-0.0193 -0.59807,0 -1.42765,0.0193 z" />
      <path
         id="path5716"
         style="font-size:19.75555611px;fill:#00496e;fill-opacity:1;stroke-width:0.26458332"
         d="m 112.50954,106.40038 q 0.13505,-0.69453 0.16399,-0.97427 0.0386,-0.27974 0.1254,-0.84887 1.31189,-0.30868 2.3151,-0.43409 1.00321,-0.1254 1.9389,-0.1254 1.06109,0 1.94855,0.25081 0.88745,0.24115 1.38906,0.78134 0.50161,0.54019 0.50161,1.55305 0,0.54984 -0.15434,2.80707 -0.15434,2.24758 -0.18328,4.6495 -0.73312,-0.0193 -1.35048,-0.0193 -0.58842,0 -1.37942,0.0193 0.12541,-1.1672 0.20258,-2.70096 l 0.1254,-2.40192 q -0.36656,0.24116 -0.55949,0.33762 -0.19292,0.0965 -0.43408,0.18328 -0.24116,0.0772 -0.84887,0.2508 -0.60772,0.16399 -0.97427,0.28939 -0.36656,0.1254 -0.6656,0.28939 -0.28938,0.15434 -0.49196,0.35691 -0.20257,0.19293 -0.29903,0.41479 -0.0868,0.21222 -0.0868,0.46302 0,0.40514 0.23151,0.70418 0.24116,0.28939 0.59807,0.40514 0.35691,0.11576 0.83923,0.11576 0.30868,0 0.6463,-0.0482 0.34726,-0.0482 0.92604,-0.24116 -0.20257,0.54984 -0.47267,1.63986 -0.68488,0.11576 -1.09003,0.1447 -0.40514,0.0289 -0.7524,0.0289 -1.21543,0 -1.99678,-0.32798 -0.78135,-0.32797 -1.15755,-1.04179 -0.36656,-0.71383 -0.36656,-1.4373 0,-0.41479 0.14469,-0.81993 0.1447,-0.40514 0.42444,-0.74276 0.27974,-0.33762 0.72347,-0.6463 0.44373,-0.31833 1.28295,-0.60772 0.83923,-0.29903 2.21864,-0.59807 0.36656,-0.0772 0.76206,-0.18327 0.39549,-0.11576 0.62701,-0.22187 0.24115,-0.10611 0.41478,-0.27009 0.17364,-0.17364 0.25081,-0.35692 0.0868,-0.18328 0.0868,-0.3762 0,-0.3762 -0.2508,-0.63665 -0.24116,-0.26045 -0.63665,-0.35692 -0.38585,-0.1061 -0.85852,-0.1061 -1.75562,0 -3.8778,0.83922 z" />
      <path
         id="path5718"
         style="font-size:19.75555611px;fill:#00496e;fill-opacity:1;stroke-width:0.26458332"
         d="m 132.93068,114.05952 q -0.80064,-0.0193 -1.24436,-0.0193 -0.48232,0 -1.33119,0.0193 l 0.0868,-1.67845 q -0.42444,0.54983 -0.73312,0.84887 -0.29903,0.29903 -0.75241,0.55948 -0.44373,0.2508 -0.96462,0.37621 -0.5209,0.1254 -1.08039,0.1254 -0.92604,0 -1.73632,-0.33762 -0.81029,-0.33762 -1.37942,-0.94534 -0.56913,-0.61736 -0.83923,-1.45658 -0.27009,-0.84887 -0.27009,-1.76527 0,-1.26366 0.48231,-2.4598 0.48232,-1.20578 1.32154,-1.94854 0.83923,-0.74277 1.90032,-1.05145 1.06108,-0.30868 2.27651,-0.30868 0.87782,0 1.98714,0.16399 0.0675,-1.25402 0.0675,-2.63343 v -0.65595 q 0.90675,0.0193 1.38906,0.0193 0.62701,0 1.40836,-0.0193 -0.21222,2.45015 -0.40515,6.67522 -0.18328,4.21542 -0.18328,6.49194 z m -2.38262,-8.04499 q -0.72347,-0.19293 -1.38907,-0.19293 -0.76205,0 -1.45658,0.21222 -0.69453,0.21222 -1.23472,0.72347 -0.53055,0.51125 -0.81994,1.31189 -0.28939,0.80064 -0.28939,1.54341 0,0.74276 0.26045,1.36012 0.2701,0.61736 0.82958,0.97427 0.55949,0.35692 1.26366,0.35692 0.53055,0 0.96463,-0.18328 0.43408,-0.19293 0.79099,-0.57878 0.35692,-0.3955 0.59807,-1.01286 0.25081,-0.61736 0.35692,-1.63986 0.0675,-0.75241 0.1254,-2.87459 z" />
      <path
         id="path5720"
         style="font-size:19.75555611px;fill:#00496e;fill-opacity:1;stroke-width:0.26458332"
         d="m 144.06248,111.86981 q -0.1254,0.56913 -0.35691,2.04501 -1.04179,0.22187 -1.75562,0.29904 -0.71382,0.0772 -1.43729,0.0772 -1.26366,0 -2.26688,-0.25081 -0.99356,-0.2508 -1.74597,-0.91639 -0.75241,-0.67524 -1.10932,-1.64951 -0.35691,-0.97428 -0.35691,-2.04501 0,-1.18649 0.41479,-2.29581 0.41479,-1.11897 1.15755,-1.82315 0.75241,-0.71382 1.70739,-1.00321 0.95498,-0.29903 1.99678,-0.29903 0.98392,0 1.87137,0.2508 0.88746,0.24116 1.48553,0.80064 0.60771,0.55948 0.92604,1.35048 0.32797,0.78134 0.32797,1.74597 0,0.45338 -0.0965,0.93569 l -7.07071,0.01 q -0.0193,0.35691 -0.0193,0.56913 0,0.6463 0.22187,1.18649 0.22186,0.54019 0.6463,0.91639 0.42443,0.37621 1.01285,0.55949 0.58843,0.17363 1.15756,0.17363 0.66559,0 1.43729,-0.1447 0.78135,-0.14469 1.85208,-0.49196 z m -6.23148,-3.89709 4.51445,0.01 q 0,-0.46302 -0.0289,-0.68489 -0.0289,-0.22186 -0.13505,-0.5016 -0.0965,-0.28939 -0.27009,-0.50161 -0.17364,-0.22186 -0.40515,-0.36656 -0.23151,-0.14469 -0.54019,-0.22186 -0.29903,-0.0772 -0.6463,-0.0772 -0.40514,0 -0.79099,0.1254 -0.37621,0.1254 -0.69453,0.36656 -0.31833,0.24116 -0.5209,0.54019 -0.19293,0.29903 -0.28939,0.57878 -0.0965,0.27009 -0.19292,0.73311 z" />
    </g>
    <g
       id="text5089"
       style="font-style:normal;font-variant:normal;font-weight:normal;font-stretch:normal;font-size:4.93888903px;line-height:1.25;font-family:'Eras Demi ITC';-inkscape-font-specification:'Eras Demi ITC';letter-spacing:0px;word-spacing:0px;fill:#00496e;fill-opacity:1;stroke:none;stroke-width:0.26458332"
       aria-label="TM">
      <path
         id="path5723"
         style="font-size:4.93888903px;fill:#00496e;fill-opacity:1;stroke-width:0.26458332"
         d="m 148.39704,103.85416 0.053,-0.70418 0.0531,-1.04903 0.0338,-1.03215 h -0.16881 l -0.15675,0.002 -0.14952,0.002 -0.55707,0.0169 q 0.0193,-0.34726 0.0217,-0.52813 0.69453,0.005 1.45418,0.005 l 0.86575,-0.002 0.46302,-0.002 q -0.0241,0.34003 -0.0241,0.52331 -0.43649,-0.0217 -0.83681,-0.0217 h -0.18569 l -0.0289,0.44132 -0.0699,1.69774 -0.005,0.28457 q -0.002,0.17604 -0.002,0.36656 l -0.36656,-0.005 q -0.0603,0 -0.39308,0.005 z" />
      <path
         id="path5725"
         style="font-size:4.93888903px;fill:#00496e;fill-opacity:1;stroke-width:0.26458332"
         d="m 150.48063,103.85416 0.0627,-0.54502 0.15916,-1.91478 0.0555,-0.83199 q 0.34485,0.005 0.50402,0.005 0.12781,0 0.46543,-0.005 0.0386,0.19533 0.0579,0.27733 0.0193,0.082 0.0748,0.26286 0.0555,0.18087 0.14228,0.4389 0.12781,0.39068 0.2291,0.77171 l 0.18328,0.6897 0.32315,-0.88504 0.47025,-1.15032 q 0.0241,-0.0579 0.0482,-0.13264 0.0265,-0.0772 0.0868,-0.2725 0.28698,0.005 0.51125,0.005 0.14952,0 0.47749,-0.005 -0.0338,0.69453 -0.0506,1.53617 -0.0169,0.83922 -0.0169,1.25401 0,0.20016 0.005,0.50161 -0.23874,-0.005 -0.32556,-0.005 -0.1254,0 -0.3328,0.005 0.0145,-0.24598 0.0193,-0.40515 l 0.041,-1.43488 q 0.007,-0.30386 0.007,-0.59807 l -0.002,-0.19533 -0.88987,2.34645 -0.1037,0.28698 q -0.23392,-0.005 -0.32074,-0.005 -0.10852,0 -0.34003,0.005 l -0.41479,-1.48553 q -0.0217,-0.0796 -0.10128,-0.33279 l -0.14952,-0.49196 q -0.0217,-0.0699 -0.0338,-0.11335 -0.01,-0.0458 -0.0458,-0.20016 l -0.0314,0.30868 q -0.0121,0.14711 -0.0362,0.49196 l -0.0941,1.49517 q -0.005,0.11094 -0.007,0.32798 l -0.31109,-0.005 q -0.0796,0 -0.31592,0.005 z" />
    </g>
  </g>
</svg>
