<svg xmlns="http://www.w3.org/2000/svg" xmlns:xlink="http://www.w3.org/1999/xlink" width="160.73" height="185.802" viewBox="0 0 160.73 185.802">
  <defs>
    <filter id="Union_1" x="25.472" y="32.849" width="109.786" height="126.016" filterUnits="userSpaceOnUse">
      <feOffset dy="3" input="SourceAlpha"/>
      <feGaussianBlur stdDeviation="3" result="blur"/>
      <feFlood flood-opacity="0.161"/>
      <feComposite operator="in" in2="blur"/>
      <feComposite in="SourceGraphic"/>
    </filter>
  </defs>
  <g id="SC-logo" transform="translate(-664.135 -447.599)">
    <g id="Path_16" data-name="Path 16" transform="translate(664.135 633.401) rotate(-90)" fill="none">
      <path d="M139.352,0,185.8,80.365,139.352,160.73h-92.9L0,80.365,46.451,0Z" stroke="none"/>
      <path d="M 52.79788208007813 11 L 12.70524597167969 80.3651123046875 L 52.79788208007813 149.730224609375 L 133.0044860839844 149.730224609375 L 173.0971221923828 80.3651123046875 L 133.0044860839844 11 L 52.79788208007813 11 M 46.45057678222656 0 L 139.3517913818359 0 L 185.8023681640625 80.3651123046875 L 139.3517913818359 160.730224609375 L 46.45057678222656 160.730224609375 L 0 80.3651123046875 L 46.45057678222656 0 Z" stroke="none" fill="#fff"/>
    </g>
    <path id="Path_16-2" data-name="Path 16" d="M121.529,0l40.51,70.087-40.51,70.087H40.51L31.857,125.2,8.576,84.924,0,70.087,40.51,0Z" transform="translate(674.413 621.519) rotate(-90)" fill="none"/>
    <g transform="matrix(1, 0, 0, 1, 664.13, 447.6)" filter="url(#Union_1)">
      <path id="Union_1-2" data-name="Union 1" d="M468.978,153.806l-16.085,9.3L407,136.578V83.525L452.893,57l45.893,26.526v53.052l-15.992,9.243,1.867,19.195Z" transform="translate(-372.53 -18.15)" fill="#fff"/>
    </g>
    <path id="Path_16-3" data-name="Path 16" d="M12.033,0l4.011,6.94-4.011,6.94H4.011L3.154,12.4.849,8.409,0,6.94,4.011,0Z" transform="translate(717.413 547.522) rotate(-90)" fill="#525252"/>
    <path id="Path_16-4" data-name="Path 16" d="M12.033,0l4.011,6.94-4.011,6.94H4.011L3.154,12.4.849,8.409,0,6.94,4.011,0Z" transform="translate(737.56 547.522) rotate(-90)" fill="#414141"/>
    <path id="Path_16-5" data-name="Path 16" d="M12.033,0l4.011,6.94-4.011,6.94H4.011L3.154,12.4.849,8.409,0,6.94,4.011,0Z" transform="translate(757.708 547.522) rotate(-90)" fill="#333"/>
  </g>
</svg>
