<?xml version="1.0" encoding="utf-8"?>
<!-- Generator: Adobe Illustrator 26.0.3, SVG Export Plug-In . SVG Version: 6.00 Build 0)  -->
<svg version="1.1" xmlns="http://www.w3.org/2000/svg" xmlns:xlink="http://www.w3.org/1999/xlink" x="0px" y="0px" width="124.7px"
	 height="136.1px" viewBox="0 0 124.7 136.1" style="enable-background:new 0 0 124.7 136.1;" xml:space="preserve">
<style type="text/css">
	.st0{fill:#00749E;}
	.st1{fill:#00648A;}
	.st2{fill:#595554;}
	.st3{fill:#635F5E;}
	.st4{fill:#0C789D;}
</style>
<g id="Whitespace">
</g>
<g id="Safecoin">
	<g>
		<path class="st0" d="M77.9,79.6l-15,8.7c-0.1,0.1-0.2,0.1-0.3,0l0,0l0,8l22-12.9L77.9,79.6z"/>
		<polygon class="st0" points="102,45.4 62.7,22.7 62.6,22.7 62.6,33.5 92.5,50.6 87.2,53.6 62.6,39.5 62.6,48.3 62.6,48.3 
			80.1,58.3 80.1,74.8 94.9,83.3 94.9,83.6 62.6,102.4 62.6,113.4 62.6,113.4 102,90.7 		"/>
		<path class="st1" d="M102,45.4L62.7,22.7L23.3,45.4v45.4l39.3,22.6L102,90.7L102,45.4z M94.9,83.6l-32.3,18.8L32.7,85.3l5.2-3.1
			l24.6,14.1l22-12.9l-6.7-3.9l-15,8.7c-0.1,0.1-0.2,0.1-0.3,0l-17.2-10l0-17.3l-15.1-8.7l32.2-18.9c0,0,0.1,0,0.1,0l29.9,17.1
			l-5.3,3.1L62.6,39.5L40.8,52.3l7.6,4.4l14.3-8.3l17.4,10l0,16.5l14.9,8.5L94.9,83.6z"/>
		<path class="st2" d="M67.4,63.8c0-2.7-2.2-4.8-4.8-4.8c-2.7,0-4.8,2.2-4.8,4.8c0,2,1.2,3.7,3,4.4l-2.1,9.5h7.9l-2.1-9.5
			C66.2,67.5,67.4,65.8,67.4,63.8z"/>
		<path class="st3" d="M67.4,63.8c0-2.6-2.1-4.8-4.7-4.8l0.1,18.7h3.8l-2.1-9.5C66.2,67.5,67.4,65.8,67.4,63.8z"/>
		<path class="st0" d="M77.9,79.6l-15,8.7c-0.1,0.1-0.2,0.1-0.3,0l0,0l0,8l22-12.9L77.9,79.6z"/>
		<polygon class="st4" points="102,45.4 62.7,22.7 62.6,22.7 62.6,33.5 92.5,50.6 87.2,53.6 62.6,39.5 62.6,48.3 62.6,48.3 
			80.1,58.3 80.1,74.8 94.9,83.3 94.9,83.6 62.6,102.4 62.6,113.4 62.6,113.4 102,90.7 		"/>
	</g>
</g>
</svg>
