<?xml version="1.0" encoding="utf-8"?>
<!-- Generator: Adobe Illustrator 26.0.3, SVG Export Plug-In . SVG Version: 6.00 Build 0)  -->
<svg version="1.1" xmlns="http://www.w3.org/2000/svg" xmlns:xlink="http://www.w3.org/1999/xlink" x="0px" y="0px" width="396.9px"
	 height="102px" viewBox="0 0 396.9 102" style="enable-background:new 0 0 396.9 102;" xml:space="preserve">
<style type="text/css">
	.st0{fill:#03587A;}
	.st1{fill:#06749E;}
	.st2{fill:#01648A;}
	.st3{fill:#0D799E;}
</style>
<g id="Whitespace">
</g>
<g id="SafeCoin_Whitespace">
</g>
<g id="Safecoin_x5F_negative">
</g>
<g id="SaveCoin_monochrome">
	<g id="text817_00000028300544665769154860000001385447247102030779_">
		<path id="path5652_00000039844782246566802660000014167338164904283793_" class="st0" d="M35,77.3c-0.2-4-0.5-7.2-0.8-9.8
			c5.1,2.3,9.8,3.5,14,3.5c1.7,0,3.2-0.2,4.7-0.7c1.5-0.5,2.5-1.2,3.2-2.2c0.7-0.9,1.1-2,1.1-3.2c0-0.9-0.2-1.7-0.5-2.4
			c-0.5-1-1.3-2-2.4-3c-1.5-1.4-4.2-3.8-8.2-7.1c-1.9-1.6-3.2-2.7-3.9-3.4c-1.6-1.5-2.8-2.8-3.6-4c-0.8-1.2-1.4-2.4-1.8-3.6
			c-0.4-1.2-0.6-2.4-0.6-3.8c0-2.5,0.7-4.8,2-6.9c1.4-2.2,3.5-3.9,6.2-5.1c2.8-1.2,6.2-1.9,10.4-1.9c3.8,0,8,0.5,12.7,1.4
			c0.1,2.7,0.4,5.9,0.8,9.4c-4.1-1.6-7.9-2.4-11.3-2.4c-2.6,0-4.7,0.6-6.3,1.8c-1.6,1.2-2.4,2.5-2.4,4.1c0,0.4,0.1,0.9,0.2,1.3
			c0.1,0.4,0.3,0.9,0.5,1.3c0.2,0.4,0.6,1,1.1,1.7c0.6,0.7,1.3,1.5,2.4,2.4c1.1,0.9,1.9,1.7,2.7,2.2l5.5,4.4c1.2,1,2.3,2,3.3,3
			c1,1,1.8,1.9,2.5,2.8c0.7,0.9,1.3,1.7,1.7,2.6c0.4,0.8,0.7,1.7,0.9,2.5c0.2,0.8,0.3,1.7,0.3,2.7c0,2.2-0.5,4.3-1.5,6.3
			c-1,1.9-2.5,3.5-4.4,4.8c-1.9,1.3-4,2.1-6.3,2.6c-2.3,0.5-4.7,0.7-7.2,0.7c-1.7,0-3.6-0.1-5.9-0.4S38.7,78.1,35,77.3L35,77.3z"/>
		<path id="path5654_00000155854177684502527970000004065845728320593310_" class="st0" d="M80.2,47.1c0.4-1.9,0.6-3.2,0.7-4
			c0.1-0.8,0.3-1.9,0.5-3.5c3.6-0.8,6.7-1.4,9.5-1.8c2.7-0.3,5.4-0.5,7.9-0.5c2.9,0,5.5,0.3,8,1c2.4,0.7,4.3,1.7,5.7,3.2
			c1.4,1.5,2,3.6,2,6.3c0,1.5-0.2,5.3-0.6,11.5c-0.4,6.1-0.7,12.4-0.7,19c-2-0.1-3.8-0.1-5.5-0.1c-1.6,0-3.5,0-5.6,0.1
			c0.3-3.2,0.6-6.9,0.8-11l0.5-9.8c-1,0.7-1.8,1.1-2.3,1.4c-0.5,0.3-1.1,0.5-1.8,0.7c-0.7,0.2-1.8,0.6-3.5,1c-1.7,0.4-3,0.8-4,1.2
			c-1,0.3-1.9,0.7-2.7,1.2c-0.8,0.4-1.5,0.9-2,1.5c-0.6,0.5-1,1.1-1.2,1.7c-0.2,0.6-0.4,1.2-0.4,1.9c0,1.1,0.3,2.1,0.9,2.9
			c0.7,0.8,1.5,1.3,2.4,1.7c1,0.3,2.1,0.5,3.4,0.5c0.8,0,1.7-0.1,2.6-0.2c0.9-0.1,2.2-0.5,3.8-1c-0.6,1.5-1.2,3.7-1.9,6.7
			c-1.9,0.3-3.3,0.5-4.5,0.6c-1.1,0.1-2.1,0.1-3.1,0.1c-3.3,0-6-0.4-8.2-1.3c-2.1-0.9-3.7-2.3-4.7-4.3c-1-1.9-1.5-3.9-1.5-5.9
			c0-1.1,0.2-2.2,0.6-3.3c0.4-1.1,1-2.1,1.7-3c0.8-0.9,1.7-1.8,3-2.6c1.2-0.9,3-1.7,5.2-2.5c2.3-0.8,5.3-1.6,9.1-2.4
			c1-0.2,2-0.5,3.1-0.7c1.1-0.3,1.9-0.6,2.6-0.9c0.7-0.3,1.2-0.7,1.7-1.1c0.5-0.5,0.8-1,1-1.5c0.2-0.5,0.4-1,0.4-1.5
			c0-1-0.3-1.9-1-2.6c-0.7-0.7-1.5-1.2-2.6-1.5c-1.1-0.3-2.2-0.4-3.5-0.4C91.2,43.7,85.9,44.9,80.2,47.1L80.2,47.1z"/>
		<path id="path5656_00000181060321419966042160000017814366969269074068_" class="st0" d="M124.3,78.4l0.5-6.5l1.2-25.6h-4.9
			c0.1-0.8,0.2-2.1,0.2-3.8c0.1-1.8,0.2-3.1,0.2-3.9h5.4V37c0-2.8,0.1-5,0.4-6.4c0.2-1.5,0.7-2.7,1.3-3.7c0.7-0.9,1.6-1.8,2.7-2.4
			c1.2-0.7,2.5-1.2,3.9-1.4c1.4-0.3,2.8-0.4,4.3-0.4c3,0,6.2,0.4,9.5,1.3c0.1,2.9,0.2,5.5,0.4,7.6c-2.5-0.9-4.8-1.3-6.9-1.3
			c-0.8,0-1.6,0.1-2.2,0.3c-0.7,0.2-1.2,0.4-1.7,0.8c-0.4,0.3-0.8,0.8-1.1,1.3c-0.3,0.6-0.5,1.2-0.6,2c-0.1,0.7-0.2,1.6-0.2,2.6v1.5
			h10c-0.2,1.8-0.3,4.4-0.5,7.7h-9.5c-0.5,10.5-0.9,21.2-1.1,32.1c-2.4-0.1-4.3-0.1-5.7-0.1C128.5,78.3,126.6,78.4,124.3,78.4
			L124.3,78.4z"/>
		<path id="path5658_00000170271382214727134930000004482728234138980483_" class="st0" d="M186.3,69.5c-0.3,1.5-0.8,4.3-1.5,8.4
			c-2.8,0.6-5.2,1-7.2,1.2c-1.9,0.2-3.9,0.3-5.9,0.3c-3.4,0-6.5-0.3-9.3-1c-2.7-0.7-5.1-1.9-7.1-3.7c-2-1.8-3.6-4.1-4.5-6.7
			c-1-2.7-1.5-5.4-1.5-8.4c0-3.2,0.6-6.4,1.7-9.4c1.1-3,2.7-5.5,4.7-7.4c2-1.9,4.4-3.3,7-4.1c2.6-0.8,5.3-1.2,8.2-1.2
			c2.7,0,5.2,0.3,7.6,1c2.4,0.7,4.4,1.7,6.1,3.3c1.7,1.5,2.9,3.4,3.8,5.5c0.9,2.1,1.3,4.5,1.3,7.1c0,1.2-0.1,2.5-0.4,3.8l-28.9,0
			c-0.1,1-0.1,1.7-0.1,2.3c0,1.8,0.3,3.4,0.9,4.8c0.6,1.5,1.5,2.7,2.6,3.7c1.2,1,2.5,1.8,4.1,2.3c1.6,0.5,3.2,0.7,4.7,0.7
			c1.8,0,3.8-0.2,5.9-0.6C180.9,71.1,183.4,70.4,186.3,69.5L186.3,69.5z M160.9,53.6l18.4,0c0-1.3,0-2.2-0.1-2.8
			c-0.1-0.6-0.3-1.3-0.6-2c-0.3-0.8-0.6-1.5-1.1-2c-0.5-0.6-1-1.1-1.7-1.5c-0.6-0.4-1.4-0.7-2.2-0.9c-0.8-0.2-1.7-0.3-2.6-0.3
			c-1.1,0-2.2,0.2-3.2,0.5c-1,0.3-2,0.8-2.8,1.5c-0.9,0.7-1.6,1.4-2.1,2.2c-0.5,0.8-0.9,1.6-1.2,2.4
			C161.4,51.3,161.1,52.3,160.9,53.6L160.9,53.6z"/>
		<path id="path5660_00000173868755244605405200000016954995720759869854_" class="st0" d="M240.5,68.6c-0.6,3.1-1.1,6.2-1.5,9.4
			c-3,0.5-5.7,0.9-8.2,1.1c-2.5,0.2-4.6,0.3-6.4,0.3c-3.9,0-7.7-0.6-11.3-1.7c-3.6-1.1-6.8-2.8-9.7-5.2c-2.9-2.4-4.9-5.3-6.2-8.7
			c-1.3-3.4-1.9-7.1-1.9-11.1c0-4.4,0.8-8.4,2.3-12.1c1.5-3.7,3.8-6.8,6.7-9.4c2.9-2.5,6.4-4.4,10.3-5.7c4-1.3,8.1-1.9,12.4-1.9
			c4.3,0,8.9,0.5,13.9,1.5c0.1,2.3,0.2,4,0.2,5l0.3,4.2c-3-0.8-5.4-1.3-7.4-1.6c-2-0.3-3.8-0.4-5.6-0.4c-2.8,0-5.5,0.4-8.1,1.3
			c-2.6,0.8-4.9,2.2-6.9,4.1c-2,1.9-3.5,4.1-4.6,6.8c-1.1,2.6-1.6,5.4-1.6,8.2c0,3.4,0.7,6.5,2,9.2c1.3,2.7,3.4,4.9,6.3,6.6
			c2.9,1.7,6.5,2.5,10.8,2.5C230.2,70.9,235,70.2,240.5,68.6L240.5,68.6z"/>
		<path id="path5662_00000039106874162466202120000001549106894337510812_" class="st0" d="M269.7,37.4c3,0,5.9,0.5,8.7,1.4
			c2.8,0.9,5.1,2.2,7.1,4c1.9,1.8,3.4,3.9,4.4,6.5c1,2.5,1.5,5.2,1.5,8.1c0,3-0.5,5.9-1.5,8.7c-1,2.8-2.5,5.2-4.5,7.2
			c-1.9,2-4.4,3.5-7.3,4.6c-2.9,1-6,1.5-9.3,1.5c-3,0-5.9-0.4-8.7-1.3c-2.7-0.9-5.1-2.3-7-4.1c-1.9-1.8-3.4-4-4.5-6.6
			c-1-2.6-1.5-5.3-1.5-8.2c0-2.9,0.5-5.6,1.4-8.3c0.9-2.6,2.4-5,4.3-7c2-2,4.5-3.6,7.5-4.8C263.3,38,266.4,37.4,269.7,37.4
			L269.7,37.4z M269.7,45.5c-2.3,0-4.3,0.6-6.1,1.7c-1.8,1.1-3.1,2.8-4,5c-0.9,2.2-1.3,4.6-1.3,7.2c0,2.3,0.4,4.3,1.1,6.1
			c0.7,1.8,1.9,3.2,3.5,4.3c1.7,1.1,3.6,1.7,5.9,1.7c2.3,0,4.3-0.6,6.1-1.7c1.8-1.2,3.1-2.8,3.9-5c0.9-2.2,1.3-4.7,1.3-7.4
			c0-2.2-0.3-4.2-1-5.9c-0.7-1.8-1.8-3.2-3.5-4.3C273.9,46.1,272,45.5,269.7,45.5L269.7,45.5z"/>
		<path id="path5664_00000071525010177187500910000012349938608277539739_" class="st0" d="M300,31.5c0.1-2.7,0.2-4.8,0.2-6.2V24
			c2.4,0.1,4.3,0.1,5.8,0.1c2,0,4,0,5.7-0.1c-0.1,0.7-0.1,1.4-0.2,2.2l-0.2,5.2c-2-0.1-3.8-0.1-5.5-0.1
			C304.2,31.4,302.2,31.4,300,31.5z M297.9,78.4c0.4-3.9,0.7-7.2,0.8-9.9c0.3-4.2,0.5-9,0.7-14.5c0.2-5.5,0.4-10.7,0.4-15.6
			c2.6,0.1,4.5,0.1,5.8,0.1c1.2,0,3.1,0,5.8-0.1c-0.4,4.6-0.7,8.9-0.9,13.1c-0.2,4.1-0.4,8.9-0.5,14.3c-0.1,5.4-0.2,9.6-0.2,12.7
			c-2.4-0.1-4.3-0.1-5.8-0.1C302.7,78.3,300.7,78.4,297.9,78.4L297.9,78.4z"/>
		<path id="path5666_00000085252823899576366210000012775506064269831048_" class="st0" d="M319.2,78.4c0.6-6,1.1-12.7,1.5-20.1
			c0.4-7.4,0.7-14.1,0.7-20c2.4,0.1,4.3,0.1,5.8,0.1c1.7,0,3.5,0,5.4-0.1l-0.4,6.7c0.8-1.2,1.5-2.1,2.1-2.8c0.6-0.7,1.4-1.4,2.4-2
			c1-0.7,2-1.2,3.1-1.6c1.1-0.4,2.3-0.7,3.7-0.9c1.4-0.2,2.8-0.4,4.3-0.4c2.3,0,4.6,0.3,6.7,0.9c2.2,0.6,3.9,1.5,5.2,2.8
			c1.3,1.3,2.2,2.7,2.6,4.2c0.4,1.5,0.6,3.1,0.6,4.8c0,0.7,0,1.8-0.1,3.4l-0.8,17.2c-0.1,2.4-0.2,4.9-0.2,7.6
			c-2.1-0.1-3.8-0.1-5.3-0.1c-2,0-4,0-6,0.1c0.2-2.3,0.5-6.3,0.8-11.9c0.3-5.7,0.5-9.5,0.5-11.3c0-2.1-0.3-3.7-1-5
			c-0.7-1.3-1.7-2.2-3.1-2.9c-1.4-0.7-2.8-1-4.5-1c-1.6,0-3,0.3-4.4,0.9c-1.4,0.6-2.5,1.5-3.5,2.6c-1.1,1.2-1.9,2.6-2.4,4.4
			c-0.6,1.8-1.1,4.9-1.3,9.1c-0.3,3.8-0.5,8.8-0.6,15.1c-2-0.1-3.8-0.1-5.5-0.1C323.6,78.3,321.6,78.4,319.2,78.4L319.2,78.4z"/>
	</g>
</g>
<g id="Safecoin">
	<g>
		<line class="st1" x1="821.7" y1="158.7" x2="821.6" y2="158.8"/>
		<path class="st2" d="M821.7,158.7"/>
		<line class="st3" x1="821.7" y1="158.7" x2="821.6" y2="158.8"/>
	</g>
</g>
</svg>
