<?xml version="1.0" encoding="utf-8"?>
<!-- Generator: Adobe Illustrator 26.0.3, SVG Export Plug-In . SVG Version: 6.00 Build 0)  -->
<svg version="1.1" xmlns="http://www.w3.org/2000/svg" xmlns:xlink="http://www.w3.org/1999/xlink" x="0px" y="0px" width="396.9px"
	 height="306.1px" viewBox="0 0 396.9 306.1" style="enable-background:new 0 0 396.9 306.1;" xml:space="preserve">
<style type="text/css">
	.st0{fill:#00749F;}
	.st1{fill:#00648B;}
	.st2{fill:#595554;}
	.st3{fill:#635F5E;}
	.st4{fill:#01496E;}
</style>
<g id="Ebene_1">
	<g>
		<path class="st0" d="M223.1,126.6l-24.4,14.1c-0.1,0.1-0.3,0.1-0.5,0l0,0l0,13.1l35.7-20.9L223.1,126.6z"/>
		<polygon class="st0" points="262.4,70.9 198.4,34 198.3,34.1 198.3,51.6 246.9,79.4 238.3,84.3 198.3,61.3 198.3,75.7 198.3,75.7 
			226.7,91.9 226.6,118.7 250.8,132.6 250.8,133 198.3,163.6 198.3,181.4 198.3,181.4 262.4,144.6 		"/>
		<path class="st1" d="M262.4,70.9l-64-36.9l-63.9,36.9v73.7l63.9,36.8l64-36.8L262.4,70.9z M250.8,133l-52.4,30.6l-48.6-27.8l8.5-5
			l40,23l35.8-21l-10.9-6.3l-24.4,14.1c-0.1,0.1-0.3,0.1-0.5,0l-28-16.2l0-28.2l-24.6-14.1l52.3-30.7c0,0,0.1,0,0.1,0l48.6,27.8
			l-8.6,5l-40-23l-35.5,20.8l12.3,7.1l23.2-13.5l28.3,16.2l0,26.8l24.1,13.8L250.8,133z"/>
		<path class="st2" d="M206,100.8c0-4.3-3.5-7.8-7.8-7.8c-4.3,0-7.8,3.5-7.8,7.8c0,3.2,2,6,4.8,7.2l-3.4,15.4h12.8l-3.4-15.4
			C204,106.9,206,104.1,206,100.8z"/>
		<path class="st3" d="M206,100.8c0-4.3-3.4-7.7-7.7-7.8l0.1,30.4h6.1l-3.4-15.4C204,106.9,206,104.1,206,100.8z"/>
		<path class="st0" d="M223.1,126.6l-24.4,14.1c-0.1,0.1-0.3,0.1-0.5,0l0,0l0,13.1l35.7-20.9L223.1,126.6z"/>
		<polygon class="st0" points="262.4,70.9 198.4,34 198.3,34.1 198.3,51.6 246.9,79.4 238.3,84.3 198.3,61.3 198.3,75.7 198.3,75.7 
			226.7,91.9 226.6,118.7 250.8,132.6 250.8,133 198.3,163.6 198.3,181.4 198.3,181.4 262.4,144.6 		"/>
	</g>
	<g>
		<g id="text817_00000079480871549620740170000014621243399404769696_">
			<path id="path5652_00000087412698536031708570000001088489869551149967_" class="st4" d="M34.8,270c-0.2-4-0.5-7.2-0.8-9.8
				c5.1,2.3,9.8,3.5,14,3.5c1.7,0,3.2-0.2,4.7-0.7c1.5-0.5,2.5-1.2,3.2-2.2c0.7-0.9,1.1-2,1.1-3.2c0-0.9-0.2-1.7-0.5-2.4
				c-0.5-1-1.3-2-2.4-3c-1.5-1.4-4.2-3.8-8.2-7.1c-1.9-1.6-3.2-2.7-3.9-3.4c-1.6-1.5-2.8-2.8-3.6-4c-0.8-1.2-1.4-2.4-1.8-3.6
				c-0.4-1.2-0.6-2.4-0.6-3.8c0-2.5,0.7-4.8,2-6.9c1.4-2.2,3.5-3.9,6.2-5.1c2.8-1.2,6.2-1.9,10.4-1.9c3.8,0,8,0.5,12.7,1.4
				c0.1,2.7,0.4,5.9,0.8,9.4c-4.1-1.6-7.9-2.4-11.3-2.4c-2.6,0-4.7,0.6-6.3,1.8c-1.6,1.2-2.4,2.5-2.4,4.1c0,0.4,0.1,0.9,0.2,1.3
				c0.1,0.4,0.3,0.9,0.5,1.3c0.2,0.4,0.6,1,1.1,1.7c0.6,0.7,1.3,1.5,2.4,2.4c1.1,0.9,1.9,1.7,2.7,2.2l5.5,4.4c1.2,1,2.3,2,3.3,3
				c1,1,1.8,1.9,2.5,2.8c0.7,0.9,1.3,1.7,1.7,2.6c0.4,0.8,0.7,1.7,0.9,2.5c0.2,0.8,0.3,1.7,0.3,2.7c0,2.2-0.5,4.3-1.5,6.3
				c-1,1.9-2.5,3.5-4.4,4.8c-1.9,1.3-4,2.1-6.3,2.6c-2.3,0.5-4.7,0.7-7.2,0.7c-1.7,0-3.6-0.1-5.9-0.4
				C41.4,271.4,38.5,270.9,34.8,270L34.8,270z"/>
			<path id="path5654_00000047050972563600669550000013985478185542441105_" class="st4" d="M80,239.9c0.4-1.9,0.6-3.2,0.7-4
				c0.1-0.8,0.3-1.9,0.5-3.5c3.6-0.8,6.7-1.4,9.5-1.8c2.7-0.3,5.4-0.5,7.9-0.5c2.9,0,5.5,0.3,8,1c2.4,0.7,4.3,1.7,5.7,3.2
				c1.4,1.5,2,3.6,2,6.3c0,1.5-0.2,5.3-0.6,11.5c-0.4,6.1-0.7,12.4-0.7,19c-2-0.1-3.8-0.1-5.5-0.1c-1.6,0-3.5,0-5.6,0.1
				c0.3-3.2,0.6-6.9,0.8-11l0.5-9.8c-1,0.7-1.8,1.1-2.3,1.4c-0.5,0.3-1.1,0.5-1.8,0.7c-0.7,0.2-1.8,0.6-3.5,1c-1.7,0.4-3,0.8-4,1.2
				c-1,0.3-1.9,0.7-2.7,1.2c-0.8,0.4-1.5,0.9-2,1.5c-0.6,0.5-1,1.1-1.2,1.7c-0.2,0.6-0.4,1.2-0.4,1.9c0,1.1,0.3,2.1,0.9,2.9
				c0.7,0.8,1.5,1.3,2.4,1.7s2.1,0.5,3.4,0.5c0.8,0,1.7-0.1,2.6-0.2c0.9-0.1,2.2-0.5,3.8-1c-0.6,1.5-1.2,3.7-1.9,6.7
				c-1.9,0.3-3.3,0.5-4.5,0.6c-1.1,0.1-2.1,0.1-3.1,0.1c-3.3,0-6-0.4-8.2-1.3c-2.1-0.9-3.7-2.3-4.7-4.3c-1-1.9-1.5-3.9-1.5-5.9
				c0-1.1,0.2-2.2,0.6-3.3c0.4-1.1,1-2.1,1.7-3c0.8-0.9,1.7-1.8,3-2.6c1.2-0.9,3-1.7,5.2-2.5c2.3-0.8,5.3-1.6,9.1-2.4
				c1-0.2,2-0.5,3.1-0.7c1.1-0.3,1.9-0.6,2.6-0.9c0.7-0.3,1.2-0.7,1.7-1.1c0.5-0.5,0.8-1,1-1.5c0.2-0.5,0.4-1,0.4-1.5
				c0-1-0.3-1.9-1-2.6c-0.7-0.7-1.5-1.2-2.6-1.5c-1.1-0.3-2.2-0.4-3.5-0.4C91,236.5,85.8,237.6,80,239.9L80,239.9z"/>
			<path id="path5656_00000006708940849032607090000007466477050357051058_" class="st4" d="M124.1,271.2l0.5-6.5l1.2-25.6h-4.9
				c0.1-0.8,0.2-2.1,0.2-3.8c0.1-1.8,0.2-3.1,0.2-3.9h5.4v-1.6c0-2.8,0.1-5,0.4-6.4c0.2-1.5,0.7-2.7,1.3-3.7
				c0.7-0.9,1.6-1.8,2.7-2.4c1.2-0.7,2.5-1.2,3.9-1.4c1.4-0.3,2.8-0.4,4.3-0.4c3,0,6.2,0.4,9.5,1.3c0.1,2.9,0.2,5.5,0.4,7.6
				c-2.5-0.9-4.8-1.3-6.9-1.3c-0.8,0-1.6,0.1-2.2,0.3c-0.7,0.2-1.2,0.4-1.7,0.8c-0.4,0.3-0.8,0.8-1.1,1.3c-0.3,0.6-0.5,1.2-0.6,2
				c-0.1,0.7-0.2,1.6-0.2,2.6v1.5h10c-0.2,1.8-0.3,4.4-0.5,7.7h-9.5c-0.5,10.5-0.9,21.2-1.1,32.1c-2.4-0.1-4.3-0.1-5.7-0.1
				C128.3,271.1,126.4,271.1,124.1,271.2L124.1,271.2z"/>
			<path id="path5658_00000013899078452158805650000001815582919541169332_" class="st4" d="M186.2,262.2c-0.3,1.5-0.8,4.3-1.5,8.4
				c-2.8,0.6-5.2,1-7.2,1.2c-1.9,0.2-3.9,0.3-5.9,0.3c-3.4,0-6.5-0.3-9.3-1c-2.7-0.7-5.1-1.9-7.1-3.7c-2-1.8-3.6-4.1-4.5-6.7
				s-1.5-5.4-1.5-8.4c0-3.2,0.6-6.4,1.7-9.4c1.1-3,2.7-5.5,4.7-7.4c2-1.9,4.4-3.3,7-4.1c2.6-0.8,5.3-1.2,8.2-1.2
				c2.7,0,5.2,0.3,7.6,1c2.4,0.7,4.4,1.7,6.1,3.3c1.7,1.5,2.9,3.4,3.8,5.5c0.9,2.1,1.3,4.5,1.3,7.1c0,1.2-0.1,2.5-0.4,3.8l-28.9,0
				c-0.1,1-0.1,1.7-0.1,2.3c0,1.8,0.3,3.4,0.9,4.8c0.6,1.5,1.5,2.7,2.6,3.7c1.2,1,2.5,1.8,4.1,2.3c1.6,0.5,3.2,0.7,4.7,0.7
				c1.8,0,3.8-0.2,5.9-0.6C180.7,263.9,183.3,263.2,186.2,262.2L186.2,262.2z M160.7,246.3l18.4,0c0-1.3,0-2.2-0.1-2.8
				c-0.1-0.6-0.3-1.3-0.6-2c-0.3-0.8-0.6-1.5-1.1-2c-0.5-0.6-1-1.1-1.7-1.5c-0.6-0.4-1.4-0.7-2.2-0.9c-0.8-0.2-1.7-0.3-2.6-0.3
				c-1.1,0-2.2,0.2-3.2,0.5c-1,0.3-2,0.8-2.8,1.5c-0.9,0.7-1.6,1.4-2.1,2.2c-0.5,0.8-0.9,1.6-1.2,2.4
				C161.2,244.1,161,245.1,160.7,246.3L160.7,246.3z"/>
			<path id="path5660_00000170986408255844603020000006570276794471105198_" class="st4" d="M240.3,261.3c-0.6,3.1-1.1,6.2-1.5,9.4
				c-3,0.5-5.7,0.9-8.2,1.1c-2.5,0.2-4.6,0.3-6.4,0.3c-3.9,0-7.7-0.6-11.3-1.7c-3.6-1.1-6.8-2.8-9.7-5.2c-2.9-2.4-4.9-5.3-6.2-8.7
				c-1.3-3.4-1.9-7.1-1.9-11.1c0-4.4,0.8-8.4,2.3-12.1c1.5-3.7,3.8-6.8,6.7-9.4c2.9-2.5,6.4-4.4,10.3-5.7c4-1.3,8.1-1.9,12.4-1.9
				c4.3,0,8.9,0.5,13.9,1.5c0.1,2.3,0.2,4,0.2,5l0.3,4.2c-3-0.8-5.4-1.3-7.4-1.6c-2-0.3-3.8-0.4-5.6-0.4c-2.8,0-5.5,0.4-8.1,1.3
				c-2.6,0.8-4.9,2.2-6.9,4.1c-2,1.9-3.5,4.1-4.6,6.8c-1.1,2.6-1.6,5.4-1.6,8.2c0,3.4,0.7,6.5,2,9.2c1.3,2.7,3.4,4.9,6.3,6.6
				c2.9,1.7,6.5,2.5,10.8,2.5C230.1,263.7,234.8,262.9,240.3,261.3L240.3,261.3z"/>
			<path id="path5662_00000170240923989529854490000007538402306674495165_" class="st4" d="M269.5,230.2c3,0,5.9,0.5,8.7,1.4
				c2.8,0.9,5.1,2.2,7.1,4c1.9,1.8,3.4,3.9,4.4,6.5c1,2.5,1.5,5.2,1.5,8.1c0,3-0.5,5.9-1.5,8.7c-1,2.8-2.5,5.2-4.5,7.2
				c-1.9,2-4.4,3.5-7.3,4.6c-2.9,1-6,1.5-9.3,1.5c-3,0-5.9-0.4-8.7-1.3c-2.7-0.9-5.1-2.3-7-4.1c-1.9-1.8-3.4-4-4.5-6.6
				c-1-2.6-1.5-5.3-1.5-8.2c0-2.9,0.5-5.6,1.4-8.3c0.9-2.6,2.4-5,4.3-7c2-2,4.5-3.6,7.5-4.8C263.1,230.7,266.2,230.2,269.5,230.2
				L269.5,230.2z M269.5,238.3c-2.3,0-4.3,0.6-6.1,1.7c-1.8,1.1-3.1,2.8-4,5c-0.9,2.2-1.3,4.6-1.3,7.2c0,2.3,0.4,4.3,1.1,6.1
				c0.7,1.8,1.9,3.2,3.5,4.3c1.7,1.1,3.6,1.7,5.9,1.7c2.3,0,4.3-0.6,6.1-1.7c1.8-1.2,3.1-2.8,3.9-5c0.9-2.2,1.3-4.7,1.3-7.4
				c0-2.2-0.3-4.2-1-5.9c-0.7-1.8-1.8-3.2-3.5-4.3C273.8,238.8,271.8,238.3,269.5,238.3L269.5,238.3z"/>
			<path id="path5664_00000135674119134471368170000016505815590276356512_" class="st4" d="M299.9,224.3c0.1-2.7,0.2-4.8,0.2-6.2
				v-1.3c2.4,0.1,4.3,0.1,5.8,0.1c2,0,4,0,5.7-0.1c-0.1,0.7-0.1,1.4-0.2,2.2l-0.2,5.2c-2-0.1-3.8-0.1-5.5-0.1
				S302.1,224.2,299.9,224.3z M297.7,271.2c0.4-3.9,0.7-7.2,0.8-9.9c0.3-4.2,0.5-9,0.7-14.5c0.2-5.5,0.4-10.7,0.4-15.6
				c2.6,0.1,4.5,0.1,5.8,0.1c1.2,0,3.1,0,5.8-0.1c-0.4,4.6-0.7,8.9-0.9,13.1c-0.2,4.1-0.4,8.9-0.5,14.3c-0.1,5.4-0.2,9.6-0.2,12.7
				c-2.4-0.1-4.3-0.1-5.8-0.1C302.6,271.1,300.5,271.1,297.7,271.2L297.7,271.2z"/>
			<path id="path5666_00000049922261832023885210000000249698893806859175_" class="st4" d="M319.1,271.2c0.6-6,1.1-12.7,1.5-20.1
				c0.4-7.4,0.7-14.1,0.7-20c2.4,0.1,4.3,0.1,5.8,0.1c1.7,0,3.5,0,5.4-0.1l-0.4,6.7c0.8-1.2,1.5-2.1,2.1-2.8c0.6-0.7,1.4-1.4,2.4-2
				c1-0.7,2-1.2,3.1-1.6c1.1-0.4,2.3-0.7,3.7-0.9c1.4-0.2,2.8-0.4,4.3-0.4c2.3,0,4.6,0.3,6.7,0.9c2.2,0.6,3.9,1.5,5.2,2.8
				s2.2,2.7,2.6,4.2c0.4,1.5,0.6,3.1,0.6,4.8c0,0.7,0,1.8-0.1,3.4l-0.8,17.2c-0.1,2.4-0.2,4.9-0.2,7.6c-2.1-0.1-3.8-0.1-5.3-0.1
				c-2,0-4,0-6,0.1c0.2-2.3,0.5-6.3,0.8-11.9c0.3-5.7,0.5-9.5,0.5-11.3c0-2.1-0.3-3.7-1-5c-0.7-1.3-1.7-2.2-3.1-2.9
				c-1.4-0.7-2.8-1-4.5-1c-1.6,0-3,0.3-4.4,0.9c-1.4,0.6-2.5,1.5-3.5,2.6c-1.1,1.2-1.9,2.6-2.4,4.4c-0.6,1.8-1.1,4.9-1.3,9.1
				c-0.3,3.8-0.5,8.8-0.6,15.1c-2-0.1-3.8-0.1-5.5-0.1C323.4,271.1,321.4,271.1,319.1,271.2L319.1,271.2z"/>
		</g>
	</g>
</g>
<g id="Whitespace">
	<g>
		<path class="st4" d="M362.7,212.3c0,4.6-3.7,8.3-8.5,8.3c-4.7,0-8.5-3.7-8.5-8.3s3.8-8.3,8.6-8.3
			C358.9,204,362.7,207.7,362.7,212.3z M347.8,212.3c0,3.7,2.8,6.6,6.5,6.6c3.6,0.1,6.3-2.9,6.3-6.6c0-3.7-2.7-6.7-6.4-6.7
			C350.6,205.7,347.8,208.7,347.8,212.3z M352.9,216.6H351v-8.3c0.8-0.1,1.8-0.3,3.2-0.3c1.6,0,2.3,0.3,2.8,0.7
			c0.5,0.4,0.9,1,0.9,1.8c0,1-0.8,1.7-1.7,2v0.1c0.8,0.3,1.2,0.9,1.5,2c0.3,1.3,0.5,1.7,0.6,2h-2c-0.3-0.3-0.4-1-0.7-2
			c-0.2-0.9-0.7-1.3-1.7-1.3h-0.9V216.6z M352.9,212h0.9c1.1,0,1.9-0.4,1.9-1.2c0-0.8-0.6-1.3-1.8-1.3c-0.5,0-0.9,0.1-1.1,0.1V212z"
			/>
	</g>
</g>
</svg>
