<?xml version="1.0" encoding="utf-8"?>
<!-- Generator: Adobe Illustrator 26.0.3, SVG Export Plug-In . SVG Version: 6.00 Build 0)  -->
<svg version="1.1" xmlns="http://www.w3.org/2000/svg" xmlns:xlink="http://www.w3.org/1999/xlink" x="0px" y="0px" width="498.9px"
	 height="136.1px" viewBox="0 0 498.9 136.1" style="enable-background:new 0 0 498.9 136.1;" xml:space="preserve">
<style type="text/css">
	.st0{fill:#03587A;}
</style>
<g id="Whitespace">
</g>
<g id="Safecoin_monochrome">
	<g id="Text">
		<path id="path5652_00000039844782246566802660000014167338164904283793_" class="st0" d="M137.1,94.3c-0.2-4-0.5-7.2-0.8-9.8
			c5.1,2.3,9.8,3.5,14,3.5c1.7,0,3.2-0.2,4.7-0.7c1.5-0.5,2.5-1.2,3.2-2.2c0.7-0.9,1.1-2,1.1-3.2c0-0.9-0.2-1.7-0.5-2.4
			c-0.5-1-1.3-2-2.4-3c-1.5-1.4-4.2-3.8-8.2-7.1c-1.9-1.6-3.2-2.7-3.9-3.4c-1.6-1.5-2.8-2.8-3.6-4c-0.8-1.2-1.4-2.4-1.8-3.6
			c-0.4-1.2-0.6-2.4-0.6-3.8c0-2.5,0.7-4.8,2-6.9c1.4-2.2,3.5-3.9,6.2-5.1c2.8-1.2,6.2-1.9,10.4-1.9c3.8,0,8,0.5,12.7,1.4
			c0.1,2.7,0.4,5.9,0.8,9.4c-4.1-1.6-7.9-2.4-11.3-2.4c-2.6,0-4.7,0.6-6.3,1.8c-1.6,1.2-2.4,2.5-2.4,4.1c0,0.4,0.1,0.9,0.2,1.3
			c0.1,0.4,0.3,0.9,0.5,1.3c0.2,0.4,0.6,1,1.1,1.7c0.6,0.7,1.3,1.5,2.4,2.4c1.1,0.9,1.9,1.7,2.7,2.2l5.5,4.4c1.2,1,2.3,2,3.3,3
			s1.8,1.9,2.5,2.8c0.7,0.9,1.3,1.7,1.7,2.6c0.4,0.8,0.7,1.7,0.9,2.5c0.2,0.8,0.3,1.7,0.3,2.7c0,2.2-0.5,4.3-1.5,6.3
			c-1,1.9-2.5,3.5-4.4,4.8c-1.9,1.3-4,2.1-6.3,2.6c-2.3,0.5-4.7,0.7-7.2,0.7c-1.7,0-3.6-0.1-5.9-0.4
			C143.6,95.7,140.7,95.1,137.1,94.3L137.1,94.3z"/>
		<path id="path5654_00000155854177684502527970000004065845728320593310_" class="st0" d="M182.2,64.2c0.4-1.9,0.6-3.2,0.7-4
			c0.1-0.8,0.3-1.9,0.5-3.5c3.6-0.8,6.7-1.4,9.5-1.8s5.4-0.5,7.9-0.5c2.9,0,5.5,0.3,8,1c2.4,0.7,4.3,1.7,5.7,3.2
			c1.4,1.5,2,3.6,2,6.3c0,1.5-0.2,5.3-0.6,11.5c-0.4,6.1-0.7,12.4-0.7,19c-2-0.1-3.8-0.1-5.5-0.1c-1.6,0-3.5,0-5.6,0.1
			c0.3-3.2,0.6-6.9,0.8-11l0.5-9.8c-1,0.7-1.8,1.1-2.3,1.4c-0.5,0.3-1.1,0.5-1.8,0.7c-0.7,0.2-1.8,0.6-3.5,1c-1.7,0.4-3,0.8-4,1.2
			c-1,0.3-1.9,0.7-2.7,1.2c-0.8,0.4-1.5,0.9-2,1.5c-0.6,0.5-1,1.1-1.2,1.7c-0.2,0.6-0.4,1.2-0.4,1.9c0,1.1,0.3,2.1,0.9,2.9
			c0.7,0.8,1.5,1.3,2.4,1.7s2.1,0.5,3.4,0.5c0.8,0,1.7-0.1,2.6-0.2c0.9-0.1,2.2-0.5,3.8-1c-0.6,1.5-1.2,3.7-1.9,6.7
			c-1.9,0.3-3.3,0.5-4.5,0.6c-1.1,0.1-2.1,0.1-3.1,0.1c-3.3,0-6-0.4-8.2-1.3c-2.1-0.9-3.7-2.3-4.7-4.3c-1-1.9-1.5-3.9-1.5-5.9
			c0-1.1,0.2-2.2,0.6-3.3c0.4-1.1,1-2.1,1.7-3c0.8-0.9,1.7-1.8,3-2.6c1.2-0.9,3-1.7,5.2-2.5c2.3-0.8,5.3-1.6,9.1-2.4
			c1-0.2,2-0.5,3.1-0.7c1.1-0.3,1.9-0.6,2.6-0.9c0.7-0.3,1.2-0.7,1.7-1.1c0.5-0.5,0.8-1,1-1.5c0.2-0.5,0.4-1,0.4-1.5
			c0-1-0.3-1.9-1-2.6c-0.7-0.7-1.5-1.2-2.6-1.5c-1.1-0.3-2.2-0.4-3.5-0.4C193.3,60.7,188,61.9,182.2,64.2L182.2,64.2z"/>
		<path id="path5656_00000181060321419966042160000017814366969269074068_" class="st0" d="M226.3,95.4l0.5-6.5l1.2-25.6h-4.9
			c0.1-0.8,0.2-2.1,0.2-3.8c0.1-1.8,0.2-3.1,0.2-3.9h5.4V54c0-2.8,0.1-5,0.4-6.4c0.2-1.5,0.7-2.7,1.3-3.7c0.7-0.9,1.6-1.8,2.7-2.4
			c1.2-0.7,2.5-1.2,3.9-1.4c1.4-0.3,2.8-0.4,4.3-0.4c3,0,6.2,0.4,9.5,1.3c0.1,2.9,0.2,5.5,0.4,7.6c-2.5-0.9-4.8-1.3-6.9-1.3
			c-0.8,0-1.6,0.1-2.2,0.3c-0.7,0.2-1.2,0.4-1.7,0.8c-0.4,0.3-0.8,0.8-1.1,1.3c-0.3,0.6-0.5,1.2-0.6,2c-0.1,0.7-0.2,1.6-0.2,2.6v1.5
			h10c-0.2,1.8-0.3,4.4-0.5,7.7h-9.5c-0.5,10.5-0.9,21.2-1.1,32.1c-2.4-0.1-4.3-0.1-5.7-0.1C230.5,95.4,228.6,95.4,226.3,95.4
			L226.3,95.4z"/>
		<path id="path5658_00000170271382214727134930000004482728234138980483_" class="st0" d="M288.4,86.5c-0.3,1.5-0.8,4.3-1.5,8.4
			c-2.8,0.6-5.2,1-7.2,1.2c-1.9,0.2-3.9,0.3-5.9,0.3c-3.4,0-6.5-0.3-9.3-1c-2.7-0.7-5.1-1.9-7.1-3.7c-2-1.8-3.6-4.1-4.5-6.7
			c-1-2.7-1.5-5.4-1.5-8.4c0-3.2,0.6-6.4,1.7-9.4c1.1-3,2.7-5.5,4.7-7.4c2-1.9,4.4-3.3,7-4.1c2.6-0.8,5.3-1.2,8.2-1.2
			c2.7,0,5.2,0.3,7.6,1c2.4,0.7,4.4,1.7,6.1,3.3c1.7,1.5,2.9,3.4,3.8,5.5c0.9,2.1,1.3,4.5,1.3,7.1c0,1.2-0.1,2.5-0.4,3.8l-28.9,0
			c-0.1,1-0.1,1.7-0.1,2.3c0,1.8,0.3,3.4,0.9,4.8c0.6,1.5,1.5,2.7,2.6,3.7c1.2,1,2.5,1.8,4.1,2.3c1.6,0.5,3.2,0.7,4.7,0.7
			c1.8,0,3.8-0.2,5.9-0.6C282.9,88.1,285.5,87.4,288.4,86.5L288.4,86.5z M262.9,70.6l18.4,0c0-1.3,0-2.2-0.1-2.8
			c-0.1-0.6-0.3-1.3-0.6-2c-0.3-0.8-0.6-1.5-1.1-2c-0.5-0.6-1-1.1-1.7-1.5c-0.6-0.4-1.4-0.7-2.2-0.9c-0.8-0.2-1.7-0.3-2.6-0.3
			c-1.1,0-2.2,0.2-3.2,0.5c-1,0.3-2,0.8-2.8,1.5c-0.9,0.7-1.6,1.4-2.1,2.2c-0.5,0.8-0.9,1.6-1.2,2.4
			C263.5,68.3,263.2,69.3,262.9,70.6L262.9,70.6z"/>
		<path id="path5660_00000173868755244605405200000016954995720759869854_" class="st0" d="M342.6,85.6c-0.6,3.1-1.1,6.2-1.5,9.4
			c-3,0.5-5.7,0.9-8.2,1.1c-2.5,0.2-4.6,0.3-6.4,0.3c-3.9,0-7.7-0.6-11.3-1.7c-3.6-1.1-6.8-2.8-9.7-5.2c-2.9-2.4-4.9-5.3-6.2-8.7
			c-1.3-3.4-1.9-7.1-1.9-11.1c0-4.4,0.8-8.4,2.3-12.1s3.8-6.8,6.7-9.4c2.9-2.5,6.4-4.4,10.3-5.7c4-1.3,8.1-1.9,12.4-1.9
			c4.3,0,8.9,0.5,13.9,1.5c0.1,2.3,0.2,4,0.2,5l0.3,4.2c-3-0.8-5.4-1.3-7.4-1.6c-2-0.3-3.8-0.4-5.6-0.4c-2.8,0-5.5,0.4-8.1,1.3
			c-2.6,0.8-4.9,2.2-6.9,4.1c-2,1.9-3.5,4.1-4.6,6.8c-1.1,2.6-1.6,5.4-1.6,8.2c0,3.4,0.7,6.5,2,9.2c1.3,2.7,3.4,4.9,6.3,6.6
			c2.9,1.7,6.5,2.5,10.8,2.5C332.3,87.9,337,87.2,342.6,85.6L342.6,85.6z"/>
		<path id="path5662_00000039106874162466202120000001549106894337510812_" class="st0" d="M371.7,54.4c3,0,5.9,0.5,8.7,1.4
			c2.8,0.9,5.1,2.2,7.1,4c1.9,1.8,3.4,3.9,4.4,6.5c1,2.5,1.5,5.2,1.5,8.1c0,3-0.5,5.9-1.5,8.7c-1,2.8-2.5,5.2-4.5,7.2
			c-1.9,2-4.4,3.5-7.3,4.6c-2.9,1-6,1.5-9.3,1.5c-3,0-5.9-0.4-8.7-1.3c-2.7-0.9-5.1-2.3-7-4.1c-1.9-1.8-3.4-4-4.5-6.6
			c-1-2.6-1.5-5.3-1.5-8.2c0-2.9,0.5-5.6,1.4-8.3c0.9-2.6,2.4-5,4.3-7c2-2,4.5-3.6,7.5-4.8C365.3,55,368.5,54.4,371.7,54.4
			L371.7,54.4z M371.7,62.5c-2.3,0-4.3,0.6-6.1,1.7c-1.8,1.1-3.1,2.8-4,5c-0.9,2.2-1.3,4.6-1.3,7.2c0,2.3,0.4,4.3,1.1,6.1
			c0.7,1.8,1.9,3.2,3.5,4.3c1.7,1.1,3.6,1.7,5.9,1.7c2.3,0,4.3-0.6,6.1-1.7c1.8-1.2,3.1-2.8,3.9-5c0.9-2.2,1.3-4.7,1.3-7.4
			c0-2.2-0.3-4.2-1-5.9c-0.7-1.8-1.8-3.2-3.5-4.3C376,63.1,374,62.5,371.7,62.5L371.7,62.5z"/>
		<path id="path5664_00000071525010177187500910000012349938608277539739_" class="st0" d="M402.1,48.5c0.1-2.7,0.2-4.8,0.2-6.2V41
			c2.4,0.1,4.3,0.1,5.8,0.1c2,0,4,0,5.7-0.1c-0.1,0.7-0.1,1.4-0.2,2.2l-0.2,5.2c-2-0.1-3.8-0.1-5.5-0.1
			C406.2,48.4,404.3,48.5,402.1,48.5z M400,95.4c0.4-3.9,0.7-7.2,0.8-9.9c0.3-4.2,0.5-9,0.7-14.5c0.2-5.5,0.4-10.7,0.4-15.6
			c2.6,0.1,4.5,0.1,5.8,0.1c1.2,0,3.1,0,5.8-0.1c-0.4,4.6-0.7,8.9-0.9,13.1c-0.2,4.1-0.4,8.9-0.5,14.3c-0.1,5.4-0.2,9.6-0.2,12.7
			c-2.4-0.1-4.3-0.1-5.8-0.1C404.8,95.4,402.7,95.4,400,95.4L400,95.4z"/>
		<path id="path5666_00000085252823899576366210000012775506064269831048_" class="st0" d="M421.3,95.4c0.6-6,1.1-12.7,1.5-20.1
			c0.4-7.4,0.7-14.1,0.7-20c2.4,0.1,4.3,0.1,5.8,0.1c1.7,0,3.5,0,5.4-0.1l-0.4,6.7c0.8-1.2,1.5-2.1,2.1-2.8c0.6-0.7,1.4-1.4,2.4-2
			c1-0.7,2-1.2,3.1-1.6c1.1-0.4,2.3-0.7,3.7-0.9c1.4-0.2,2.8-0.4,4.3-0.4c2.3,0,4.6,0.3,6.7,0.9c2.2,0.6,3.9,1.5,5.2,2.8
			c1.3,1.3,2.2,2.7,2.6,4.2c0.4,1.5,0.6,3.1,0.6,4.8c0,0.7,0,1.8-0.1,3.4l-0.8,17.2c-0.1,2.4-0.2,4.9-0.2,7.6
			c-2.1-0.1-3.8-0.1-5.3-0.1c-2,0-4,0-6,0.1c0.2-2.3,0.5-6.3,0.8-11.9c0.3-5.7,0.5-9.5,0.5-11.3c0-2.1-0.3-3.7-1-5
			c-0.7-1.3-1.7-2.2-3.1-2.9c-1.4-0.7-2.8-1-4.5-1c-1.6,0-3,0.3-4.4,0.9c-1.4,0.6-2.5,1.5-3.5,2.6c-1.1,1.2-1.9,2.6-2.4,4.4
			c-0.6,1.8-1.1,4.9-1.3,9.1c-0.3,3.8-0.5,8.8-0.6,15.1c-2-0.1-3.8-0.1-5.5-0.1C425.6,95.4,423.6,95.4,421.3,95.4L421.3,95.4z"/>
	</g>
	<g id="Icon">
		<path class="st0" d="M88.7,79.6l-15,8.7c-0.1,0.1-0.2,0.1-0.3,0l0,0l0,8l22-12.9L88.7,79.6z"/>
		<polygon class="st0" points="112.9,45.4 73.5,22.7 73.4,22.7 73.5,33.5 103.3,50.6 98.1,53.6 73.4,39.5 73.5,48.3 73.5,48.3 
			90.9,58.3 90.9,74.8 105.8,83.3 105.8,83.6 73.5,102.4 73.5,113.4 73.5,113.4 112.9,90.7 		"/>
		<path class="st0" d="M112.9,45.4L73.5,22.7L34.2,45.4v45.4l39.3,22.6l39.4-22.6L112.9,45.4z M105.8,83.6l-32.3,18.8L43.6,85.3
			l5.2-3.1l24.6,14.1l22-12.9l-6.7-3.9l-15,8.7c-0.1,0.1-0.2,0.1-0.3,0l-17.2-10l0-17.3l-15.1-8.7l32.2-18.9c0,0,0.1,0,0.1,0
			l29.9,17.1l-5.3,3.1L73.4,39.5L51.6,52.3l7.6,4.4l14.3-8.3l17.4,10l0,16.5l14.9,8.5L105.8,83.6z"/>
		<path class="st0" d="M78.2,63.8c0-2.7-2.2-4.8-4.8-4.8s-4.8,2.2-4.8,4.8c0,2,1.2,3.7,3,4.4l-2.1,9.5h7.9l-2.1-9.5
			C77,67.5,78.2,65.8,78.2,63.8z"/>
		<path class="st0" d="M78.2,63.8c0-2.6-2.1-4.8-4.7-4.8l0.1,18.7h3.8l-2.1-9.5C77,67.5,78.2,65.8,78.2,63.8z"/>
		<path class="st0" d="M88.7,79.6l-15,8.7c-0.1,0.1-0.2,0.1-0.3,0l0,0l0,8l22-12.9L88.7,79.6z"/>
		<polygon class="st0" points="112.9,45.4 73.5,22.7 73.4,22.7 73.5,33.5 103.3,50.6 98.1,53.6 73.4,39.5 73.5,48.3 73.5,48.3 
			90.9,58.3 90.9,74.8 105.8,83.3 105.8,83.6 73.5,102.4 73.5,113.4 73.5,113.4 112.9,90.7 		"/>
	</g>
	<g>
		<path class="st0" d="M464.9,31c0,4.6-3.7,8.3-8.5,8.3c-4.7,0-8.5-3.7-8.5-8.3s3.8-8.3,8.6-8.3C461.1,22.7,464.9,26.3,464.9,31z
			 M450,31c0,3.7,2.8,6.6,6.5,6.6c3.6,0.1,6.3-2.9,6.3-6.6c0-3.7-2.7-6.7-6.4-6.7C452.8,24.3,450,27.3,450,31z M455.1,35.2h-1.9V27
			c0.8-0.1,1.8-0.3,3.2-0.3c1.6,0,2.3,0.3,2.8,0.7c0.5,0.4,0.9,1,0.9,1.8c0,1-0.8,1.7-1.7,2v0.1c0.8,0.3,1.2,0.9,1.5,2
			c0.3,1.3,0.5,1.7,0.6,2h-2c-0.3-0.3-0.4-1-0.7-2c-0.2-0.9-0.7-1.3-1.7-1.3h-0.9V35.2z M455.1,30.6h0.9c1.1,0,1.9-0.4,1.9-1.2
			c0-0.8-0.6-1.3-1.8-1.3c-0.5,0-0.9,0.1-1.1,0.1V30.6z"/>
	</g>
</g>
</svg>
