<?xml version="1.0" encoding="UTF-8" standalone="no"?>
<svg
   xmlns:dc="http://purl.org/dc/elements/1.1/"
   xmlns:cc="http://creativecommons.org/ns#"
   xmlns:rdf="http://www.w3.org/1999/02/22-rdf-syntax-ns#"
   xmlns:svg="http://www.w3.org/2000/svg"
   xmlns="http://www.w3.org/2000/svg"
   id="svg8"
   version="1.1"
   viewBox="0 0 90.233841 13.88098"
   height="13.88098mm"
   width="90.233841mm">
  <defs
     id="defs2" />
  <metadata
     id="metadata5">
    <rdf:RDF>
      <cc:Work
         rdf:about="">
        <dc:format>image/svg+xml</dc:format>
        <dc:type
           rdf:resource="http://purl.org/dc/dcmitype/StillImage" />
        <dc:title></dc:title>
      </cc:Work>
    </rdf:RDF>
  </metadata>
  <g
     transform="translate(-24.788546,-90.582679)"
     id="layer1">
    <g
       id="text817"
       style="font-style:normal;font-variant:normal;font-weight:normal;font-stretch:normal;font-size:19.75555611px;line-height:1.25;font-family:'Eras Demi ITC';-inkscape-font-specification:'Eras Demi ITC';letter-spacing:0px;word-spacing:0px;fill:#00496e;fill-opacity:1;stroke:none;stroke-width:0.26458332"
       aria-label="SafeCoin">
      <path
         id="path5652"
         style="font-size:19.75555611px;fill:#00496e;fill-opacity:1;stroke-width:0.26458332"
         d="m 24.991118,103.95241 q -0.07717,-1.46624 -0.202572,-2.39228 1.890668,0.85852 3.434071,0.85852 0.617361,0 1.147906,-0.18328 0.540191,-0.19293 0.790994,-0.53054 0.260449,-0.34727 0.260449,-0.77171 0,-0.32797 -0.115755,-0.58842 -0.173633,-0.356911 -0.578776,-0.742761 -0.559484,-0.530545 -1.996777,-1.745975 -0.684885,-0.588422 -0.945335,-0.839225 -0.578776,-0.549837 -0.887456,-0.983919 -0.308681,-0.443729 -0.443729,-0.877811 -0.135047,-0.434082 -0.135047,-0.926041 0,-0.906749 0.501606,-1.697743 0.511252,-0.800641 1.514464,-1.244369 1.012858,-0.453375 2.546614,-0.453375 1.379417,0 3.106098,0.33762 0.04823,1.003212 0.192926,2.295812 -1.504818,-0.578777 -2.778125,-0.578777 -0.945335,0 -1.553049,0.434083 -0.598069,0.424435 -0.598069,0.993565 0,0.15434 0.03858,0.327973 0.03859,0.163987 0.115755,0.327973 0.07717,0.154341 0.270096,0.41479 0.202571,0.250803 0.578776,0.598068 0.385851,0.33762 0.655946,0.549838 l 1.340831,1.080382 q 0.453375,0.376204 0.810287,0.733116 0.356912,0.356912 0.607715,0.684885 0.260449,0.327973 0.405143,0.627007 0.144694,0.299035 0.212218,0.617364 0.07717,0.30868 0.07717,0.65594 0,0.81029 -0.376205,1.53376 -0.376204,0.71382 -1.080382,1.17684 -0.704177,0.46303 -1.543402,0.63666 -0.839226,0.18328 -1.774914,0.18328 -0.617361,0 -1.437293,-0.10611 -0.819933,-0.10611 -2.160764,-0.40514 z" />
      <path
         id="path5654"
         style="font-size:19.75555611px;fill:#00496e;fill-opacity:1;stroke-width:0.26458332"
         d="m 36.045741,96.573011 q 0.135047,-0.694532 0.163986,-0.974273 0.03858,-0.279742 0.125402,-0.848872 1.311892,-0.30868 2.315104,-0.434082 1.003212,-0.125401 1.9389,-0.125401 1.061089,0 1.948546,0.250803 0.887456,0.241156 1.389062,0.781347 0.501606,0.540191 0.501606,1.553049 0,0.549838 -0.15434,2.807064 -0.15434,2.247584 -0.183279,4.649504 -0.733117,-0.0193 -1.350478,-0.0193 -0.588422,0 -1.379416,0.0193 0.125402,-1.1672 0.202572,-2.70096 l 0.125401,-2.401918 q -0.366558,0.241156 -0.559483,0.337619 -0.192926,0.09646 -0.434082,0.183279 -0.241157,0.07717 -0.848872,0.250803 -0.607715,0.163987 -0.974273,0.289387 -0.366558,0.1254 -0.665592,0.28939 -0.289388,0.15434 -0.49196,0.35691 -0.202572,0.19293 -0.299034,0.41479 -0.08682,0.21222 -0.08682,0.46302 0,0.40514 0.231511,0.70418 0.241156,0.28939 0.598068,0.40514 0.356912,0.11576 0.839226,0.11576 0.30868,0 0.646299,-0.0482 0.347266,-0.0482 0.926042,-0.24116 -0.202571,0.54984 -0.472667,1.63986 -0.684885,0.11576 -1.090028,0.1447 -0.405143,0.0289 -0.752409,0.0289 -1.21543,0 -1.996777,-0.32798 -0.781348,-0.32797 -1.157553,-1.04179 -0.366558,-0.71383 -0.366558,-1.4373 0,-0.41479 0.144694,-0.81993 0.144694,-0.40514 0.424436,-0.74276 0.279742,-0.337621 0.72347,-0.646302 0.443728,-0.318326 1.282954,-0.607714 0.839225,-0.299035 2.218641,-0.598069 0.366558,-0.07717 0.762055,-0.183279 0.395497,-0.115755 0.627008,-0.221864 0.241156,-0.106109 0.414789,-0.270096 0.173633,-0.173633 0.250803,-0.356912 0.08682,-0.183279 0.08682,-0.376204 0,-0.376204 -0.250803,-0.636654 -0.241157,-0.260449 -0.636654,-0.356912 -0.385851,-0.106109 -0.858518,-0.106109 -1.755621,0 -3.877799,0.839226 z" />
      <path
         id="path5656"
         style="font-size:19.75555611px;fill:#00496e;fill-opacity:1;stroke-width:0.26458332"
         d="m 46.84956,104.23215 0.115755,-1.59164 0.289388,-6.270071 h -1.196137 q 0.02894,-0.289388 0.05788,-0.935688 0.03859,-0.655946 0.04823,-0.95498 h 1.311892 V 94.09392 q 0,-1.032151 0.08682,-1.572342 0.08682,-0.549837 0.318327,-0.897103 0.241157,-0.347265 0.665593,-0.598068 0.434082,-0.260449 0.945334,-0.347266 0.511252,-0.09646 1.051443,-0.09646 1.099675,0 2.324751,0.30868 0.02894,1.080382 0.106108,1.852083 -0.926041,-0.327973 -1.688096,-0.327973 -0.299035,0 -0.549838,0.07717 -0.250803,0.06752 -0.414789,0.192925 -0.15434,0.125401 -0.260449,0.327973 -0.106109,0.202572 -0.144694,0.482313 -0.03859,0.270096 -0.03859,0.627008 v 0.356912 h 2.459798 q -0.05788,0.665592 -0.115755,1.890668 h -2.315105 q -0.183279,3.83921 -0.279741,7.86171 -0.877811,-0.0193 -1.398709,-0.0193 -0.530545,0 -1.379416,0.0193 z" />
      <path
         id="path5658"
         style="font-size:19.75555611px;fill:#00496e;fill-opacity:1;stroke-width:0.26458332"
         d="m 62.042432,102.04244 q -0.125401,0.56913 -0.356912,2.04501 -1.041797,0.22187 -1.75562,0.29904 -0.713824,0.0772 -1.437294,0.0772 -1.263661,0 -2.266873,-0.25081 -0.993566,-0.2508 -1.745975,-0.91639 -0.752408,-0.67524 -1.10932,-1.64951 -0.356912,-0.97428 -0.356912,-2.045011 0,-1.186491 0.414789,-2.295812 0.41479,-1.118967 1.157552,-1.823145 0.752409,-0.713823 1.70739,-1.003211 0.95498,-0.299035 1.996777,-0.299035 0.983919,0 1.871376,0.250803 0.887457,0.241157 1.485525,0.800641 0.607715,0.559483 0.926042,1.350477 0.327973,0.781348 0.327973,1.745974 0,0.453375 -0.09646,0.935688 l -7.070714,0.0096 q -0.01929,0.356912 -0.01929,0.569129 0,0.646302 0.221864,1.186492 0.221864,0.54019 0.6463,0.91639 0.424436,0.37621 1.012858,0.55949 0.588422,0.17363 1.157552,0.17363 0.665592,0 1.437294,-0.1447 0.781348,-0.14469 1.852083,-0.49196 z m -6.231489,-3.897088 4.514454,0.0096 q 0,-0.463021 -0.02894,-0.684885 -0.02894,-0.221865 -0.135048,-0.501606 -0.09646,-0.289388 -0.270095,-0.501606 -0.173633,-0.221864 -0.405144,-0.366558 -0.23151,-0.144694 -0.540191,-0.221865 -0.299034,-0.07717 -0.6463,-0.07717 -0.405143,0 -0.790993,0.125402 -0.376205,0.125401 -0.694532,0.366558 -0.318327,0.241157 -0.520898,0.540191 -0.192926,0.299034 -0.289388,0.578776 -0.09646,0.270095 -0.192926,0.733116 z" />
      <path
         id="path5660"
         style="font-size:19.75555611px;fill:#00496e;fill-opacity:1;stroke-width:0.26458332"
         d="m 75.306049,101.82058 q -0.212218,1.12861 -0.366559,2.29581 -1.099674,0.19293 -2.016069,0.2701 -0.916396,0.0772 -1.572342,0.0772 -1.44694,0 -2.768479,-0.40515 -1.311892,-0.40514 -2.372982,-1.2733 -1.051443,-0.87781 -1.52411,-2.12218 -0.472667,-1.24437 -0.472667,-2.720249 0,-1.601281 0.56913,-2.961404 0.569129,-1.360124 1.630219,-2.295812 1.070736,-0.935688 2.527322,-1.389063 1.456586,-0.463021 3.038574,-0.463021 1.562696,0 3.414779,0.356912 0.02894,0.858518 0.05788,1.21543 l 0.06752,1.032151 q -1.090029,-0.289388 -1.813499,-0.395497 -0.72347,-0.106109 -1.379416,-0.106109 -1.032151,0 -1.987131,0.318327 -0.945334,0.30868 -1.678451,0.993565 -0.72347,0.684885 -1.118967,1.659158 -0.385851,0.964627 -0.385851,2.01607 0,1.254015 0.482314,2.247582 0.482313,0.99356 1.543403,1.61093 1.070735,0.61736 2.643077,0.61736 1.456586,0 3.482303,-0.57878 z" />
      <path
         id="path5662"
         style="font-size:19.75555611px;fill:#00496e;fill-opacity:1;stroke-width:0.26458332"
         d="m 82.444289,94.190383 q 1.109321,0 2.122179,0.337619 1.022504,0.327973 1.726682,0.983919 0.713823,0.6463 1.070735,1.591634 0.356912,0.935688 0.356912,1.977485 0,1.09967 -0.376204,2.12218 -0.376205,1.0225 -1.090029,1.77491 -0.713823,0.74277 -1.784559,1.11897 -1.061089,0.36656 -2.266873,0.36656 -1.118967,0 -2.131825,-0.32798 -1.003212,-0.33761 -1.717036,-1.00321 -0.713824,-0.66559 -1.090028,-1.62057 -0.366558,-0.95498 -0.366558,-1.996778 0,-1.061089 0.337619,-2.025716 0.33762,-0.964627 1.051443,-1.717035 0.72347,-0.752409 1.842438,-1.167199 1.118967,-0.414789 2.315104,-0.414789 z m 0,1.987131 q -0.839226,0 -1.504818,0.414789 -0.655946,0.405143 -0.983919,1.21543 -0.318327,0.810286 -0.318327,1.765267 0,0.83923 0.260449,1.49517 0.270096,0.65595 0.868164,1.06109 0.607715,0.40514 1.437294,0.40514 0.848872,0 1.485525,-0.41479 0.6463,-0.42443 0.964627,-1.23472 0.327973,-0.81993 0.327973,-1.80385 0,-0.80064 -0.250803,-1.456586 -0.250803,-0.655946 -0.848871,-1.051443 -0.588423,-0.395497 -1.437294,-0.395497 z" />
      <path
         id="path5664"
         style="font-size:19.75555611px;fill:#00496e;fill-opacity:1;stroke-width:0.26458332"
         d="m 89.881561,92.743442 q 0.03858,-0.993565 0.03858,-1.52411 v -0.30868 q 0.877811,0.01929 1.427648,0.01929 0.752409,0 1.398709,-0.01929 -0.02894,0.241156 -0.03858,0.549837 l -0.04823,1.282953 q -0.733116,-0.01929 -1.350477,-0.01929 -0.617361,0 -1.427648,0.01929 z m -0.520898,11.488708 q 0.144694,-1.44694 0.202572,-2.42122 0.09646,-1.5434 0.163986,-3.559469 0.07717,-2.01607 0.106109,-3.829568 0.945334,0.01929 1.418001,0.01929 0.434082,0 1.408355,-0.01929 -0.135047,1.678451 -0.221864,3.202561 -0.07717,1.52411 -0.115755,3.491946 -0.03858,1.96784 -0.03858,3.11575 -0.87781,-0.0193 -1.408355,-0.0193 -0.501606,0 -1.514464,0.0193 z" />
      <path
         id="path5666"
         style="font-size:19.75555611px;fill:#00496e;fill-opacity:1;stroke-width:0.26458332"
         d="m 94.579295,104.23215 q 0.221864,-2.18971 0.366558,-4.919599 0.15434,-2.729894 0.173633,-4.890658 0.887456,0.01929 1.418001,0.01929 0.627007,0 1.331185,-0.01929 l -0.106109,1.639866 q 0.299034,-0.424436 0.520899,-0.675239 0.23151,-0.250803 0.578776,-0.49196 0.356911,-0.241157 0.752408,-0.385851 0.405144,-0.144694 0.897104,-0.23151 0.50161,-0.08682 1.0418,-0.08682 0.85851,0 1.63986,0.221864 0.791,0.212218 1.27331,0.684885 0.48231,0.472667 0.63665,1.03215 0.15434,0.559484 0.15434,1.186491 0,0.26045 -0.0289,0.829579 l -0.20257,4.215422 q -0.0386,0.87781 -0.0482,1.87138 -0.76205,-0.0193 -1.30224,-0.0193 -0.73312,0 -1.47588,0.0193 0.0772,-0.83923 0.19292,-2.92282 0.11576,-2.093246 0.11576,-2.768485 0,-0.762055 -0.24116,-1.225076 -0.24116,-0.463021 -0.75241,-0.704177 -0.5016,-0.241157 -1.09003,-0.241157 -0.578773,0 -1.080379,0.221864 -0.501606,0.221864 -0.868164,0.6463 -0.385851,0.434082 -0.598069,1.070736 -0.221864,0.675239 -0.327973,2.228295 -0.09646,1.37941 -0.15434,3.69452 -0.742763,-0.0193 -1.340831,-0.0193 -0.607715,0 -1.475879,0.0193 z" />
    </g>
    <g
       id="text5089"
       style="font-style:normal;font-variant:normal;font-weight:normal;font-stretch:normal;font-size:4.93888903px;line-height:1.25;font-family:'Eras Demi ITC';-inkscape-font-specification:'Eras Demi ITC';letter-spacing:0px;word-spacing:0px;fill:#00496e;fill-opacity:1;stroke:none;stroke-width:0.26458332"
       aria-label="TM">
      <path
         id="path5669"
         style="font-size:4.93888903px;fill:#00496e;fill-opacity:1;stroke-width:0.26458332"
         d="m 109.08752,94.026779 0.053,-0.704177 0.0531,-1.049032 0.0338,-1.032151 h -0.16881 l -0.15675,0.0024 -0.14952,0.0024 -0.55707,0.01688 q 0.0193,-0.347265 0.0217,-0.528133 0.69454,0.0048 1.45418,0.0048 l 0.86575,-0.0024 0.46302,-0.0024 q -0.0241,0.340031 -0.0241,0.52331 -0.4365,-0.0217 -0.83682,-0.0217 h -0.18569 l -0.0289,0.441317 -0.0699,1.697743 -0.005,0.284565 q -0.002,0.176044 -0.002,0.366558 l -0.36656,-0.0048 q -0.0603,0 -0.39308,0.0048 z" />
      <path
         id="path5671"
         style="font-size:4.93888903px;fill:#00496e;fill-opacity:1;stroke-width:0.26458332"
         d="m 111.17111,94.026779 0.0627,-0.545014 0.15917,-1.914784 0.0555,-0.831991 q 0.34486,0.0048 0.50402,0.0048 0.12781,0 0.46543,-0.0048 0.0386,0.195337 0.0579,0.277331 0.0193,0.08199 0.0748,0.26286 0.0555,0.180868 0.14228,0.438906 0.12782,0.390673 0.2291,0.771701 l 0.18328,0.689708 0.32315,-0.885045 0.47026,-1.150317 q 0.0241,-0.05788 0.0482,-0.132637 0.0265,-0.07717 0.0868,-0.272507 0.28698,0.0048 0.51126,0.0048 0.14951,0 0.47749,-0.0048 -0.0338,0.694532 -0.0507,1.536168 -0.0169,0.839226 -0.0169,1.254015 0,0.20016 0.005,0.501606 -0.23874,-0.0048 -0.32556,-0.0048 -0.1254,0 -0.33279,0.0048 0.0145,-0.24598 0.0193,-0.405143 l 0.041,-1.434882 q 0.007,-0.303858 0.007,-0.598069 l -0.002,-0.195337 -0.88987,2.346455 -0.1037,0.286976 q -0.23392,-0.0048 -0.32073,-0.0048 -0.10852,0 -0.34004,0.0048 l -0.41478,-1.485525 q -0.0217,-0.07958 -0.10129,-0.332796 l -0.14952,-0.49196 q -0.0217,-0.06994 -0.0338,-0.113344 -0.01,-0.04582 -0.0458,-0.20016 l -0.0314,0.308681 q -0.0121,0.147106 -0.0362,0.49196 l -0.0941,1.495171 q -0.005,0.110932 -0.007,0.327973 l -0.31109,-0.0048 q -0.0796,0 -0.31592,0.0048 z" />
    </g>
  </g>
</svg>
