<?xml version="1.0" encoding="utf-8"?>
<!-- Generator: Adobe Illustrator 26.0.3, SVG Export Plug-In . SVG Version: 6.00 Build 0)  -->
<svg version="1.1" xmlns="http://www.w3.org/2000/svg" xmlns:xlink="http://www.w3.org/1999/xlink" x="0px" y="0px" width="498.9px"
	 height="136.1px" viewBox="0 0 498.9 136.1" style="enable-background:new 0 0 498.9 136.1;" xml:space="preserve">
<style type="text/css">
	.st0{fill:#005885;}
	.st1{fill:#FFFFFF;}
</style>
<g id="Whitespace">
	<rect y="0" class="st0" width="498.9" height="136.1"/>
</g>
<g id="Safecoin_x5F_negative">
	<g id="Text">
		<path id="path5652_00000179616324366667439240000002798538404037789074_" class="st1" d="M137.4,94.1c-0.2-4-0.5-7.2-0.8-9.8
			c5.1,2.3,9.8,3.5,14,3.5c1.7,0,3.2-0.2,4.7-0.7c1.5-0.5,2.5-1.2,3.2-2.2c0.7-0.9,1.1-2,1.1-3.2c0-0.9-0.2-1.7-0.5-2.4
			c-0.5-1-1.3-2-2.4-3c-1.5-1.4-4.2-3.8-8.2-7.1c-1.9-1.6-3.2-2.7-3.9-3.4c-1.6-1.5-2.8-2.8-3.6-4c-0.8-1.2-1.4-2.4-1.8-3.6
			c-0.4-1.2-0.6-2.4-0.6-3.8c0-2.5,0.7-4.8,2-6.9c1.4-2.2,3.5-3.9,6.2-5.1c2.8-1.2,6.2-1.9,10.4-1.9c3.8,0,8,0.5,12.7,1.4
			c0.1,2.7,0.4,5.9,0.8,9.4c-4.1-1.6-7.9-2.4-11.3-2.4c-2.6,0-4.7,0.6-6.3,1.8c-1.6,1.2-2.4,2.5-2.4,4.1c0,0.4,0.1,0.9,0.2,1.3
			c0.1,0.4,0.3,0.9,0.5,1.3c0.2,0.4,0.6,1,1.1,1.7c0.6,0.7,1.3,1.5,2.4,2.4c1.1,0.9,1.9,1.7,2.7,2.2l5.5,4.4c1.2,1,2.3,2,3.3,3
			c1,1,1.8,1.9,2.5,2.8c0.7,0.9,1.3,1.7,1.7,2.6c0.4,0.8,0.7,1.7,0.9,2.5c0.2,0.8,0.3,1.7,0.3,2.7c0,2.2-0.5,4.3-1.5,6.3
			c-1,1.9-2.5,3.5-4.4,4.8c-1.9,1.3-4,2.1-6.3,2.6c-2.3,0.5-4.7,0.7-7.2,0.7c-1.7,0-3.6-0.1-5.9-0.4S141,94.9,137.4,94.1L137.4,94.1
			z"/>
		<path id="path5654_00000040543173893508634840000016863445640469832880_" class="st1" d="M182.5,64c0.4-1.9,0.6-3.2,0.7-4
			c0.1-0.8,0.3-1.9,0.5-3.5c3.6-0.8,6.7-1.4,9.5-1.8c2.7-0.3,5.4-0.5,7.9-0.5c2.9,0,5.5,0.3,8,1c2.4,0.7,4.3,1.7,5.7,3.2
			c1.4,1.5,2,3.6,2,6.3c0,1.5-0.2,5.3-0.6,11.5c-0.4,6.1-0.7,12.4-0.7,19c-2-0.1-3.8-0.1-5.5-0.1c-1.6,0-3.5,0-5.6,0.1
			c0.3-3.2,0.6-6.9,0.8-11l0.5-9.8c-1,0.7-1.8,1.1-2.3,1.4c-0.5,0.3-1.1,0.5-1.8,0.7c-0.7,0.2-1.8,0.6-3.5,1c-1.7,0.4-3,0.8-4,1.2
			c-1,0.3-1.9,0.7-2.7,1.2c-0.8,0.4-1.5,0.9-2,1.5c-0.6,0.5-1,1.1-1.2,1.7c-0.2,0.6-0.4,1.2-0.4,1.9c0,1.1,0.3,2.1,0.9,2.9
			c0.7,0.8,1.5,1.3,2.4,1.7c1,0.3,2.1,0.5,3.4,0.5c0.8,0,1.7-0.1,2.6-0.2c0.9-0.1,2.2-0.5,3.8-1c-0.6,1.5-1.2,3.7-1.9,6.7
			c-1.9,0.3-3.3,0.5-4.5,0.6c-1.1,0.1-2.1,0.1-3.1,0.1c-3.3,0-6-0.4-8.2-1.3c-2.1-0.9-3.7-2.3-4.7-4.3c-1-1.9-1.5-3.9-1.5-5.9
			c0-1.1,0.2-2.2,0.6-3.3c0.4-1.1,1-2.1,1.7-3c0.8-0.9,1.7-1.8,3-2.6c1.2-0.9,3-1.7,5.2-2.5c2.3-0.8,5.3-1.6,9.1-2.4
			c1-0.2,2-0.5,3.1-0.7c1.1-0.3,1.9-0.6,2.6-0.9c0.7-0.3,1.2-0.7,1.7-1.1c0.5-0.5,0.8-1,1-1.5c0.2-0.5,0.4-1,0.4-1.5
			c0-1-0.3-1.9-1-2.6c-0.7-0.7-1.5-1.2-2.6-1.5c-1.1-0.3-2.2-0.4-3.5-0.4C193.6,60.5,188.3,61.7,182.5,64L182.5,64z"/>
		<path id="path5656_00000057107651409470191760000010855583356644945556_" class="st1" d="M226.6,95.3l0.5-6.5l1.2-25.6h-4.9
			c0.1-0.8,0.2-2.1,0.2-3.8c0.1-1.8,0.2-3.1,0.2-3.9h5.4v-1.6c0-2.8,0.1-5,0.4-6.4c0.2-1.5,0.7-2.7,1.3-3.7c0.7-0.9,1.6-1.8,2.7-2.4
			c1.2-0.7,2.5-1.2,3.9-1.4c1.4-0.3,2.8-0.4,4.3-0.4c3,0,6.2,0.4,9.5,1.3c0.1,2.9,0.2,5.5,0.4,7.6c-2.5-0.9-4.8-1.3-6.9-1.3
			c-0.8,0-1.6,0.1-2.2,0.3c-0.7,0.2-1.2,0.4-1.7,0.8c-0.4,0.3-0.8,0.8-1.1,1.3c-0.3,0.6-0.5,1.2-0.6,2c-0.1,0.7-0.2,1.6-0.2,2.6v1.5
			h10c-0.2,1.8-0.3,4.4-0.5,7.7h-9.5c-0.5,10.5-0.9,21.2-1.1,32.1c-2.4-0.1-4.3-0.1-5.7-0.1C230.8,95.2,228.9,95.2,226.6,95.3
			L226.6,95.3z"/>
		<path id="path5658_00000057839483426850514350000014521781879320245149_" class="st1" d="M288.7,86.3c-0.3,1.5-0.8,4.3-1.5,8.4
			c-2.8,0.6-5.2,1-7.2,1.2c-1.9,0.2-3.9,0.3-5.9,0.3c-3.4,0-6.5-0.3-9.3-1c-2.7-0.7-5.1-1.9-7.1-3.7c-2-1.8-3.6-4.1-4.5-6.7
			c-1-2.7-1.5-5.4-1.5-8.4c0-3.2,0.6-6.4,1.7-9.4c1.1-3,2.7-5.5,4.7-7.4c2-1.9,4.4-3.3,7-4.1c2.6-0.8,5.3-1.2,8.2-1.2
			c2.7,0,5.2,0.3,7.6,1c2.4,0.7,4.4,1.7,6.1,3.3c1.7,1.5,2.9,3.4,3.8,5.5c0.9,2.1,1.3,4.5,1.3,7.1c0,1.2-0.1,2.5-0.4,3.8l-28.9,0
			c-0.1,1-0.1,1.7-0.1,2.3c0,1.8,0.3,3.4,0.9,4.8c0.6,1.5,1.5,2.7,2.6,3.7c1.2,1,2.5,1.8,4.1,2.3c1.6,0.5,3.2,0.7,4.7,0.7
			c1.8,0,3.8-0.2,5.9-0.6C283.2,87.9,285.8,87.3,288.7,86.3L288.7,86.3z M263.2,70.4l18.4,0c0-1.3,0-2.2-0.1-2.8
			c-0.1-0.6-0.3-1.3-0.6-2c-0.3-0.8-0.6-1.5-1.1-2c-0.5-0.6-1-1.1-1.7-1.5c-0.6-0.4-1.4-0.7-2.2-0.9c-0.8-0.2-1.7-0.3-2.6-0.3
			c-1.1,0-2.2,0.2-3.2,0.5c-1,0.3-2,0.8-2.8,1.5c-0.9,0.7-1.6,1.4-2.1,2.2c-0.5,0.8-0.9,1.6-1.2,2.4
			C263.8,68.1,263.5,69.1,263.2,70.4L263.2,70.4z"/>
		<path id="path5660_00000045619924790831929760000006427007827045291695_" class="st1" d="M342.9,85.4c-0.6,3.1-1.1,6.2-1.5,9.4
			c-3,0.5-5.7,0.9-8.2,1.1c-2.5,0.2-4.6,0.3-6.4,0.3c-3.9,0-7.7-0.6-11.3-1.7c-3.6-1.1-6.8-2.8-9.7-5.2c-2.9-2.4-4.9-5.3-6.2-8.7
			c-1.3-3.4-1.9-7.1-1.9-11.1c0-4.4,0.8-8.4,2.3-12.1s3.8-6.8,6.7-9.4c2.9-2.5,6.4-4.4,10.3-5.7c4-1.3,8.1-1.9,12.4-1.9
			c4.3,0,8.9,0.5,13.9,1.5c0.1,2.3,0.2,4,0.2,5l0.3,4.2c-3-0.8-5.4-1.3-7.4-1.6c-2-0.3-3.8-0.4-5.6-0.4c-2.8,0-5.5,0.4-8.1,1.3
			c-2.6,0.8-4.9,2.2-6.9,4.1c-2,1.9-3.5,4.1-4.6,6.8c-1.1,2.6-1.6,5.4-1.6,8.2c0,3.4,0.7,6.5,2,9.2c1.3,2.7,3.4,4.9,6.3,6.6
			c2.9,1.7,6.5,2.5,10.8,2.5C332.6,87.8,337.3,87,342.9,85.4L342.9,85.4z"/>
		<path id="path5662_00000117648273166179149030000009743522485538615984_" class="st1" d="M372,54.2c3,0,5.9,0.5,8.7,1.4
			c2.8,0.9,5.1,2.2,7.1,4c1.9,1.8,3.4,3.9,4.4,6.5c1,2.5,1.5,5.2,1.5,8.1c0,3-0.5,5.9-1.5,8.7c-1,2.8-2.5,5.2-4.5,7.2
			c-1.9,2-4.4,3.5-7.3,4.6c-2.9,1-6,1.5-9.3,1.5c-3,0-5.9-0.4-8.7-1.3c-2.7-0.9-5.1-2.3-7-4.1c-1.9-1.8-3.4-4-4.5-6.6
			c-1-2.6-1.5-5.3-1.5-8.2c0-2.9,0.5-5.6,1.4-8.3c0.9-2.6,2.4-5,4.3-7c2-2,4.5-3.6,7.5-4.8C365.6,54.8,368.7,54.2,372,54.2L372,54.2
			z M372,62.4c-2.3,0-4.3,0.6-6.1,1.7c-1.8,1.1-3.1,2.8-4,5c-0.9,2.2-1.3,4.6-1.3,7.2c0,2.3,0.4,4.3,1.1,6.1
			c0.7,1.8,1.9,3.2,3.5,4.3c1.7,1.1,3.6,1.7,5.9,1.7c2.3,0,4.3-0.6,6.1-1.7c1.8-1.2,3.1-2.8,3.9-5c0.9-2.2,1.3-4.7,1.3-7.4
			c0-2.2-0.3-4.2-1-5.9c-0.7-1.8-1.8-3.2-3.5-4.3C376.3,62.9,374.3,62.4,372,62.4L372,62.4z"/>
		<path id="path5664_00000117678658107397205040000011558520372190696604_" class="st1" d="M402.4,48.3c0.1-2.7,0.2-4.8,0.2-6.2
			v-1.3c2.4,0.1,4.3,0.1,5.8,0.1c2,0,4,0,5.7-0.1c-0.1,0.7-0.1,1.4-0.2,2.2l-0.2,5.2c-2-0.1-3.8-0.1-5.5-0.1
			C406.5,48.3,404.6,48.3,402.4,48.3z M400.3,95.3c0.4-3.9,0.7-7.2,0.8-9.9c0.3-4.2,0.5-9,0.7-14.5c0.2-5.5,0.4-10.7,0.4-15.6
			c2.6,0.1,4.5,0.1,5.8,0.1c1.2,0,3.1,0,5.8-0.1c-0.4,4.6-0.7,8.9-0.9,13.1c-0.2,4.1-0.4,8.9-0.5,14.3c-0.1,5.4-0.2,9.6-0.2,12.7
			c-2.4-0.1-4.3-0.1-5.8-0.1C405.1,95.2,403,95.2,400.3,95.3L400.3,95.3z"/>
		<path id="path5666_00000128471399851712691460000018241727141143094155_" class="st1" d="M421.6,95.3c0.6-6,1.1-12.7,1.5-20.1
			c0.4-7.4,0.7-14.1,0.7-20c2.4,0.1,4.3,0.1,5.8,0.1c1.7,0,3.5,0,5.4-0.1l-0.4,6.7c0.8-1.2,1.5-2.1,2.1-2.8c0.6-0.7,1.4-1.4,2.4-2
			c1-0.7,2-1.2,3.1-1.6c1.1-0.4,2.3-0.7,3.7-0.9c1.4-0.2,2.8-0.4,4.3-0.4c2.3,0,4.6,0.3,6.7,0.9c2.2,0.6,3.9,1.5,5.2,2.8
			c1.3,1.3,2.2,2.7,2.6,4.2c0.4,1.5,0.6,3.1,0.6,4.8c0,0.7,0,1.8-0.1,3.4l-0.8,17.2c-0.1,2.4-0.2,4.9-0.2,7.6
			c-2.1-0.1-3.8-0.1-5.3-0.1c-2,0-4,0-6,0.1c0.2-2.3,0.5-6.3,0.8-11.9c0.3-5.7,0.5-9.5,0.5-11.3c0-2.1-0.3-3.7-1-5
			c-0.7-1.3-1.7-2.2-3.1-2.9c-1.4-0.7-2.8-1-4.5-1c-1.6,0-3,0.3-4.4,0.9c-1.4,0.6-2.5,1.5-3.5,2.6c-1.1,1.2-1.9,2.6-2.4,4.4
			c-0.6,1.8-1.1,4.9-1.3,9.1c-0.3,3.8-0.5,8.8-0.6,15.1c-2-0.1-3.8-0.1-5.5-0.1C425.9,95.2,423.9,95.2,421.6,95.3L421.6,95.3z"/>
	</g>
	<g id="Icon">
		<path class="st1" d="M89,79.5l-15,8.7c-0.1,0.1-0.2,0.1-0.3,0l0,0l0,8l22-12.9L89,79.5z"/>
		<polygon class="st1" points="113.2,45.2 73.8,22.5 73.7,22.5 73.8,33.3 103.6,50.4 98.4,53.5 73.7,39.3 73.8,48.2 73.8,48.2 
			91.2,58.1 91.2,74.6 106.1,83.1 106,83.4 73.8,102.2 73.8,113.2 73.8,113.2 113.2,90.6 		"/>
		<path class="st1" d="M113.2,45.2L73.8,22.5L34.5,45.2v45.4l39.3,22.6l39.4-22.6L113.2,45.2z M106.1,83.4l-32.3,18.8L43.9,85.2
			l5.2-3.1l24.6,14.1l22-12.9L89,79.5l-15,8.7c-0.1,0.1-0.2,0.1-0.3,0l-17.2-10l0-17.3l-15.1-8.7l32.2-18.9c0,0,0.1,0,0.1,0
			l29.9,17.1l-5.3,3.1L73.7,39.3L51.9,52.1l7.6,4.4l14.3-8.3l17.4,10l0,16.5l14.9,8.5L106.1,83.4z"/>
		<path class="st1" d="M78.5,63.6c0-2.7-2.2-4.8-4.8-4.8s-4.8,2.2-4.8,4.8c0,2,1.2,3.7,3,4.4l-2.1,9.5h7.9l-2.1-9.5
			C77.3,67.3,78.5,65.6,78.5,63.6z"/>
		<path class="st1" d="M78.5,63.6c0-2.6-2.1-4.8-4.7-4.8l0.1,18.7h3.8l-2.1-9.5C77.3,67.3,78.5,65.6,78.5,63.6z"/>
		<path class="st1" d="M89,79.5l-15,8.7c-0.1,0.1-0.2,0.1-0.3,0l0,0l0,8l22-12.9L89,79.5z"/>
		<polygon class="st1" points="113.2,45.2 73.8,22.5 73.7,22.5 73.8,33.3 103.6,50.4 98.4,53.5 73.7,39.3 73.8,48.2 73.8,48.2 
			91.2,58.1 91.2,74.6 106.1,83.1 106,83.4 73.8,102.2 73.8,113.2 73.8,113.2 113.2,90.6 		"/>
	</g>
	<g>
		<path class="st1" d="M465.2,30.8c0,4.6-3.7,8.3-8.5,8.3c-4.7,0-8.5-3.7-8.5-8.3s3.8-8.3,8.6-8.3C461.4,22.5,465.2,26.1,465.2,30.8
			z M450.3,30.8c0,3.7,2.8,6.6,6.5,6.6c3.6,0.1,6.3-2.9,6.3-6.6c0-3.7-2.7-6.7-6.4-6.7C453.1,24.2,450.3,27.1,450.3,30.8z
			 M455.4,35.1h-1.9v-8.3c0.8-0.1,1.8-0.3,3.2-0.3c1.6,0,2.3,0.3,2.8,0.7c0.5,0.4,0.9,1,0.9,1.8c0,1-0.8,1.7-1.7,2V31
			c0.8,0.3,1.2,0.9,1.5,2c0.3,1.3,0.5,1.7,0.6,2h-2c-0.3-0.3-0.4-1-0.7-2c-0.2-0.9-0.7-1.3-1.7-1.3h-0.9V35.1z M455.4,30.4h0.9
			c1.1,0,1.9-0.4,1.9-1.2c0-0.8-0.6-1.3-1.8-1.3c-0.5,0-0.9,0.1-1.1,0.1V30.4z"/>
	</g>
</g>
</svg>
